<svg version="1.1" xmlns="http://www.w3.org/2000/svg" xmlns:xlink="http://www.w3.org/1999/xlink" preserveAspectRatio="xMidYMid meet" viewBox="635 244 196 165"><g data-item-type="text" data-item="Business" id="logo__item--business" class="logo__item">
                <g class="logo__item__inner" transform="translate(638.453125 407.14929871739827) scale(1 1) rotate(0 0 0)">
                    <text data-part-id="logo__item--business" dy="0" dominant-baseline="auto" alignment-baseline="auto" font-family="Montserrat" font-size="32px" fill="#0E73B9" letter-spacing="0" font-weight="bold" font-style="normal" data-font-family="Montserrat" data-font-weight="bold" data-font-style="normal" data-ttf-url="/builder_assets/fontsttf/font-montserrat-bold-normal.ttf">TechTrends</text>
                </g>
            </g><g data-item-type="image" data-item="Image" data-logo-item="" id="logo__item--logo_0" class="logo__item">
    <g class="logo__item__inner" transform="translate(660.4229183590076 232) scale(1.4637124726065278 1.4637124726065278) rotate(0 0 0)">
        

<g>
	<g>
		<path fill="#0E73B9" d="M65.371,89.793c-0.377,0.153-0.546,0.198-0.546,0.198s0,0,0-0.005c0.188-0.07,0.377-0.125,0.555-0.198    C65.38,89.788,65.375,89.793,65.371,89.793L65.371,89.793z" data-part-id="logo__item--logo_0__0"></path>
		<path fill="#FFFFFF" d="M65.38,89.788c-0.178,0.073-0.376,0.113-0.56,0.203c0.055-0.017,0.263-0.08,0.551-0.198l0,0    c-0.557,0.222-0.744,0.262-0.764,0.262c0.009-0.005,0.009-0.005,0.02-0.005c0.248-0.099,0.516-0.163,0.758-0.262H65.38    L65.38,89.788z" data-part-id="logo__item--logo_0__1"></path>
		<path fill="#0E73B9" d="M60.339,90.872c0.303-0.015,0.609-0.068,0.912-0.02c-0.153,0.069-0.327,0.085-0.485,0.14    c0.178,0.063,2.245-0.243,4.54-1.176c-0.104,0.045-0.213,0.09-0.322,0.13c0.124-0.05,0.248-0.1,0.372-0.148    c-0.015,0.005-0.024,0.009-0.034,0.014c-0.269,0.109-0.53,0.213-0.803,0.313c0.049-0.015,0.118-0.039,0.168-0.06    c-1.557,0.586-3.188,0.912-4.773,1.379c0.129-0.005,0.253-0.035,0.381-0.055c-0.614,0.272-3.489,0.659-5.269,0.763    c0.485-0.108,0.669-0.173,0.758-0.208c0.01-0.005,0.01-0.009,0.021-0.009c0.178-0.055,0.198-0.071,0.262-0.12    c-0.054-0.064-0.133-0.158-1.828-0.153c-0.848,0-2.3-0.036-2.519-0.313c0.05-0.07,0.148-0.134,0.228-0.174    c0.501-0.143,0.501-0.143,3.445,0.209c0.729,0.05,2.449,0.088,2.612-0.566C58.679,90.862,59.353,90.902,60.339,90.872    L60.339,90.872z" data-part-id="logo__item--logo_0__2"></path>
		<path fill="#FFFFFF" d="M65.351,89.803h-0.01l0,0C65.351,89.803,65.351,89.803,65.351,89.803L65.351,89.803L65.351,89.803z     M65.341,89.807v-0.004c0,0,0,0.004,0,0V89.807z M65.306,89.816L65.306,89.816h-0.005H65.306z M65.301,89.821v-0.005    c0,0,0,0.005-0.005,0.005H65.301z M65.271,89.831h0.01C65.281,89.831,65.281,89.831,65.271,89.831L65.271,89.831z M65.152,89.881    L65.152,89.881c-0.01,0-0.01,0-0.01,0H65.152z M65.143,89.887v-0.006c0,0.006-0.011,0.006-0.015,0.006    C65.128,89.887,65.132,89.887,65.143,89.887z M65.088,89.906c0.005,0,0.005,0,0.005,0v-0.005L65.088,89.906z M65.083,89.906    L65.083,89.906c0,0-0.005,0-0.01,0.005C65.078,89.911,65.083,89.911,65.083,89.906z M65.068,89.911c0.005,0.005,0.005,0,0.005,0    l0,0H65.068z M65.019,89.926c-0.006,0.005-0.006,0.005-0.01,0.005c-0.005,0.006-0.015,0.011-0.025,0.011v0.005    c0.029-0.01,0.061-0.021,0.085-0.035c-0.016,0.005-0.024,0.01-0.035,0.01L65.019,89.926z M64.727,90.041    c0.015-0.005,0.034-0.017,0.054-0.017c0.034-0.019,0.074-0.033,0.114-0.045c0.015-0.005,0.03-0.014,0.05-0.019l0,0    c0.01-0.005,0.02-0.005,0.02-0.01c0.01,0,0.015,0,0.02-0.005c0,0-0.015,0-0.02,0.005C64.885,89.979,64.806,90.01,64.727,90.041z     M64.646,90.079c0.02-0.01,0.03-0.015,0.045-0.02c-0.015,0.01-0.035,0.015-0.055,0.02H64.646z M64.607,90.095    c0.009-0.005,0.02-0.01,0.029-0.016c-0.01,0.011-0.025,0.016-0.039,0.021C64.598,90.1,64.598,90.095,64.607,90.095z M64.21,90.239    c0.021-0.007,0.03-0.012,0.05-0.017c0.011-0.005,0.021-0.01,0.029-0.01c0.031-0.009,0.07-0.023,0.1-0.04    c-0.485,0.175-0.981,0.323-1.477,0.463C63.349,90.521,63.784,90.388,64.21,90.239z M54.237,91.661c-0.848,0-2.3-0.036-2.519-0.313    c0.01-0.01,0.021-0.021,0.029-0.035c0.03-0.045,0.075-0.078,0.14-0.108c0.01-0.005,0.02-0.01,0.034-0.02    c0.024-0.011,0.06-0.021,0.095-0.03c0,0,0,0,0.01,0c0.184-0.06,0.445-0.068,0.783-0.06c0.015,0,0.034,0,0.055,0.005    c0.56,0.024,1.313,0.123,2.245,0.248c0.029,0.005,2.131,0.233,2.746-0.297c0.074-0.064,0.129-0.145,0.148-0.234    c0.67,0.045,1.349,0.085,2.335,0.05c0.303-0.01,0.609-0.059,0.907-0.015c-0.148,0.069-0.317,0.085-0.48,0.14    c0.133,0.05,1.294-0.108,2.83-0.571c-0.039,0.01-0.069,0.021-0.099,0.026c-0.288,0.083-0.556,0.158-0.804,0.217    c-0.039,0.01-0.089,0.025-0.134,0.035c-0.024,0.005-0.045,0.01-0.064,0.015c-0.044,0.01-0.089,0.025-0.129,0.03    c-0.198,0.045-0.372,0.078-0.525,0.113c-0.119,0.02-0.223,0.04-0.307,0.05c-0.03,0.005-0.061,0.015-0.085,0.015    c-0.1,0.016-0.184,0.025-0.242,0.03c-0.061,0.01-0.1,0.01-0.13,0.01c0.011-0.005,0.021-0.005,0.021-0.01    c0.02-0.005,0.039-0.015,0.06-0.02c0.108-0.04,0.237-0.061,0.347-0.094c0.01-0.005,0.02-0.012,0.03-0.012    c0,0-0.011-0.005-0.021-0.005c-0.09-0.019-0.129-0.019-0.803,0.005c-0.714,0.03-1.562,0.04-2.826-0.073c-0.005,0-0.005,0-0.005,0    l-0.203-0.015l0.01,0.029l0,0c-0.019,0.075-0.05,0.139-0.099,0.198c-0.03,0.045-0.069,0.08-0.119,0.113    c-0.024,0.016-0.049,0.03-0.079,0.051c-0.05,0.029-0.109,0.06-0.179,0.084c-0.039,0.009-0.079,0.021-0.108,0.035    c-0.119,0.035-0.248,0.059-0.397,0.073c-0.307,0.035-0.684,0.05-1.13,0.025l-0.247-0.03c-1.497-0.203-2.45-0.331-3.099-0.307    c-0.005,0-0.01,0-0.01,0c-0.362,0.021-0.64,0.08-0.868,0.207c-0.005,0-0.01,0.005-0.02,0.012c0,0.015-0.01,0.038-0.01,0.06    c-0.01,0.009-0.01,0.023-0.021,0.038c0.075,0.065,0.189,0.115,0.327,0.16c0.021,0.005,0.05,0.014,0.075,0.019    c0.024,0.01,0.049,0.015,0.079,0.02c0.024,0.011,0.055,0.016,0.08,0.021c0.024,0.005,0.054,0.01,0.083,0.015    c0.03,0.005,0.06,0.01,0.09,0.021c0.272,0.043,0.585,0.074,0.902,0.093c0.069,0,0.138,0.007,0.208,0.012    c0.099,0.005,0.193,0.01,0.288,0.01c0.029,0.004,0.068,0.004,0.108,0.004c0.288,0.005,0.575,0.01,0.813,0.005    c0.228,0,0.411,0,0.56,0c0.114,0,0.198,0.01,0.272,0.01c0.029,0,0.06,0,0.079,0.005c0.061,0.005,0.114,0.012,0.159,0.017    c0.034,0.004,0.06,0.009,0.089,0.019c0.02,0,0.04,0.01,0.06,0.015c0.015,0.005,0.035,0.011,0.05,0.016v0.069    c-0.005,0-0.005,0.005-0.01,0.005l0,0c-0.01,0.004-0.025,0.014-0.04,0.014c-0.02,0.017-0.049,0.03-0.074,0.035    c-0.024,0.01-0.055,0.021-0.085,0.03c-0.029,0.01-0.039,0.02-0.049,0.02s-0.01,0.005-0.01,0.005    c-0.025,0.005-0.045,0.016-0.069,0.021c-0.021,0.01-0.04,0.015-0.055,0.024c-0.034,0.01-0.074,0.02-0.114,0.03    c-0.109,0.028-0.268,0.068-0.516,0.128c0.05,0,0.104-0.005,0.159-0.005c0.02,0,0.049,0,0.069,0.005    c0.059-0.01,0.129-0.015,0.193-0.015c0.48-0.108,0.669-0.173,0.758-0.208c0.01-0.005,0.01-0.005,0.021-0.014    c0.05-0.012,0.108-0.03,0.153-0.045c0.005-0.005,0.016-0.012,0.02-0.012c0.015-0.01,0.025-0.014,0.035-0.019    c0.015-0.01,0.024-0.02,0.029-0.024c0.011-0.006,0.02-0.011,0.024-0.016C56.012,91.745,55.933,91.656,54.237,91.661z     M60.453,91.318c0.387-0.123,0.772-0.238,1.17-0.342c-0.575,0.148-1.146,0.302-1.71,0.467c0.134-0.005,0.253-0.035,0.381-0.055    c-0.009,0.005-0.034,0.015-0.064,0.024c-0.223,0.063-0.877,0.212-1.908,0.387c-0.02,0.005-0.04,0.01-0.059,0.01    c-0.021,0.005-0.04,0.005-0.065,0.01c-0.64,0.07-1.402,0.164-2.126,0.243c0.139-0.015,0.287-0.024,0.427-0.04    c0.02,0,0.049-0.005,0.068-0.005c0.342-0.034,0.68-0.064,1.002-0.104c0.188-0.023,0.386-0.05,0.589-0.078    c0.105-0.016,0.283-0.045,0.501-0.085c0.021-0.005,0.04-0.01,0.06-0.01c0.377-0.07,0.853-0.158,1.349-0.273    c0.005,0,0.005,0,0.005,0c0.179-0.045,0.362-0.083,0.536-0.133c0.005,0,0.014,0,0.014-0.006c0.05-0.01,0.1-0.024,0.149-0.038    c-0.015,0-0.025,0-0.039,0.004c-0.021,0-0.04,0-0.061,0.005c-0.01,0-0.01,0-0.015,0c-0.055,0.015-0.109,0.024-0.164,0.029    c-0.059,0.011-0.119,0.025-0.173,0.03c0.034-0.01,0.054-0.015,0.084-0.024C60.423,91.328,60.434,91.323,60.453,91.318z     M65.341,89.803L65.341,89.803c0.01,0,0.01,0,0.01,0l0,0H65.341z M65.341,89.807v-0.004c0,0,0,0.004,0,0V89.807z M65.306,89.816    L65.306,89.816h-0.005H65.306z M65.301,89.821v-0.005c0,0,0,0.005-0.005,0.005H65.301z M65.271,89.831h0.01    C65.281,89.831,65.281,89.831,65.271,89.831L65.271,89.831z M65.242,89.842h0.009v-0.004c0,0,0,0.004-0.009,0V89.842z     M65.222,89.852L65.222,89.852L65.222,89.852L65.222,89.852z M65.152,89.881L65.152,89.881c-0.01,0-0.01,0-0.01,0H65.152z     M65.112,89.892c0.011,0,0.02-0.005,0.03-0.005v-0.006c0,0.006-0.011,0.006-0.015,0.006    C65.123,89.892,65.118,89.892,65.112,89.892z M65.098,89.901c0.005,0,0.005-0.005,0.015-0.005c-0.005,0-0.005,0-0.005,0    C65.103,89.896,65.103,89.896,65.098,89.901z M65.088,89.906c0.005,0,0.005,0,0.005,0v-0.005L65.088,89.906z M65.073,89.911    L65.073,89.911h-0.005c-0.024,0.015-0.056,0.025-0.085,0.035c-0.005,0.005-0.01,0.005-0.02,0.005c0.04-0.01,0.08-0.03,0.119-0.045    h0.005h-0.005C65.083,89.906,65.078,89.906,65.073,89.911z M64.796,90.015c-0.011,0.01-0.025,0.015-0.04,0.021    c0.054-0.021,0.114-0.045,0.169-0.066c0.005-0.004,0.009-0.004,0.02-0.009c-0.02,0.005-0.035,0.014-0.05,0.019    C64.864,89.991,64.835,90.006,64.796,90.015z M64.607,90.09c0.029-0.016,0.069-0.025,0.099-0.04    c-0.06,0.02-0.119,0.04-0.179,0.064C64.558,90.104,64.577,90.095,64.607,90.09z M64.607,90.095c0.009-0.005,0.02-0.01,0.029-0.016    c-0.01,0.011-0.025,0.016-0.039,0.021C64.598,90.1,64.598,90.095,64.607,90.095z M56.061,92.063    c-0.356,0.03-0.714,0.054-1.035,0.089C55.347,92.126,55.694,92.098,56.061,92.063z" data-part-id="logo__item--logo_0__3"></path>
		<path fill="#0E73B9" d="M42.799,90.57c0.654,0.219,0.699,0.282,0.761,0.372c-0.216,0.198-0.504,0.074-0.746,0.168    c-0.006,0.025-0.01,0.055-0.015,0.08c0.667,0.564,4.635,1.119,5.509,0.961c0.005-0.019,0.013-0.054,0.018-0.08    c-0.015-0.014-0.035-0.033-0.049-0.049c0.109-0.074,0.118-0.084,1.331,0.021c1.309,0.108,2.547,0.213,4.789,0.153    c-0.129,0.178-0.282,0.406-3.955,0.348c-1.28-0.026-1.51-0.015-1.74,0.039c0.01,0.024,0.022,0.055,0.037,0.079    c0.372,0.108,0.372,0.108,5.193-0.055c-0.223,0.045-0.525,0.104-0.754,0.13c-3.212,0.252-5.103,0.113-7.726-0.085    c0.164,0.03,0.328,0.045,0.491,0.059c-1.242-0.163-2.899-0.37-4.129-0.595c0.109,0.017,0.221,0.035,0.33,0.055    c-6.878-1.898-6.878-1.898-6.9-2.097c0.015-0.01,0.035-0.024,0.052-0.038c0.275-0.05,0.568,0.033,2.238,0.633    c2.203,0.803,2.936,0.779,3.063,0.77c0.072-0.025,0.087-0.03,0.103-0.035c0.602-0.371-1.183-0.902-2.615-1.329    c-1.904-0.569-0.773-0.803,0.424-1.051C40.102,89.683,40.256,89.731,42.799,90.57L42.799,90.57z" data-part-id="logo__item--logo_0__4"></path>
		<path fill="#FFFFFF" d="M49.203,92.647c0.037-0.045,0.086-0.064,0.266-0.075c0.188-0.01,0.465-0.01,0.972-0.005    c0.068,0,0.153,0,0.237,0c1.12,0.021,2.409,0.005,3.252-0.104c0.069-0.005,0.134-0.015,0.198-0.024    c0.05-0.005,0.109-0.021,0.158-0.03c0.258-0.05,0.446-0.113,0.525-0.198c0,0-0.005-0.005-0.009-0.005    c-0.011-0.015-0.031-0.035-0.04-0.045c-0.055,0-0.109,0.005-0.159,0.005c-0.139,0-0.268,0.005-0.401,0.005    c-0.005,0-0.015,0-0.015,0.007c-1.091,0.014-1.894,0.014-3.084-0.062c-0.257-0.019-0.534-0.038-0.832-0.068    c-0.169-0.01-0.357-0.025-0.555-0.04c-0.268-0.029-0.486-0.045-0.684-0.064c-0.271-0.025-0.479-0.035-0.647-0.044l0,0    c-0.377-0.02-0.521,0-0.607,0.059c0.007,0,0.009,0.005,0.014,0.01c0.008,0.011,0.018,0.016,0.027,0.025c0.003,0,0.003,0,0.003,0    c0.015,0.02,0.027,0.029,0.037,0.045c0.015,0.01,0.02,0.024,0.034,0.033c-0.01,0.007-0.019,0.007-0.03,0.007    c-0.168,0.028-0.431,0.038-0.748,0.015c-0.022,0-0.047,0-0.075-0.005c-0.047,0-0.091-0.005-0.141-0.01    c-0.049,0-0.103-0.012-0.149-0.016c-0.049,0-0.102-0.005-0.152-0.015c-0.206-0.021-0.426-0.045-0.646-0.08h-0.005    c-0.08-0.01-0.161-0.024-0.24-0.033c-0.077-0.017-0.153-0.026-0.233-0.035c-0.104-0.02-0.208-0.04-0.312-0.06    c-0.156-0.025-0.31-0.06-0.457-0.09c-0.53-0.113-0.991-0.243-1.263-0.361c-0.022-0.011-0.047-0.025-0.07-0.035    c-0.029-0.015-0.057-0.03-0.079-0.04v-0.015c-0.002-0.014-0.002-0.03-0.002-0.049c0,0,0,0,0-0.005c0,0-0.002-0.015-0.002-0.021    c0.005-0.005,0.015-0.005,0.022-0.009c0.007,0,0.017-0.005,0.021-0.01c0.006,0,0.008-0.005,0.008-0.005    c0.02,0,0.032-0.005,0.042-0.01c0.013,0,0.025,0,0.038,0c0.345-0.016,0.436-0.045,0.557-0.099c0.008-0.021,0.015-0.06,0.025-0.085    c-0.014-0.015-0.034-0.03-0.062-0.05c-0.007-0.01-0.018-0.015-0.027-0.024c-0.013-0.011-0.024-0.016-0.038-0.025    c-0.042-0.023-0.094-0.055-0.163-0.09c-0.047-0.023-0.104-0.049-0.171-0.078c-0.137-0.05-0.317-0.12-0.555-0.198    c-0.049-0.021-0.099-0.035-0.144-0.05c-0.04-0.016-0.079-0.025-0.119-0.04c-1.046-0.352-1.678-0.564-2.151-0.738    c0.738,0.297,1.472,0.609,2.226,0.862c0.651,0.214,0.699,0.277,0.761,0.372c-0.216,0.193-0.509,0.069-0.746,0.163    c-0.006,0.025-0.01,0.055-0.013,0.08c0.665,0.564,4.632,1.119,5.504,0.961c0.007-0.025,0.016-0.054,0.022-0.08    c-0.018-0.014-0.038-0.033-0.052-0.049c0.109-0.074,0.122-0.084,1.331,0.016c1.309,0.113,2.547,0.218,4.789,0.158    c-0.129,0.178-0.277,0.406-3.955,0.348c-1.28-0.026-1.51-0.015-1.743,0.044c0.014,0.02,0.03,0.05,0.039,0.074    c0.164,0.045,0.256,0.07,0.721,0.075c-0.088-0.021-0.188-0.045-0.275-0.07C49.188,92.662,49.198,92.652,49.203,92.647z     M54.386,92.579c-0.01-0.007-0.01-0.007-0.016-0.007c-0.024,0-0.049-0.005-0.074-0.005c-0.555-0.063-1.104-0.023-1.655,0.045    c-0.129,0.016-0.257,0.035-0.392,0.055c0.486-0.015,1.036-0.039,1.681-0.06c-0.02,0.01-0.045,0.021-0.06,0.035    c-0.025,0-0.045,0-0.064,0.005c-0.104,0.015-0.213,0.03-0.313,0.045c-0.139,0.015-0.282,0.028-0.426,0.045    c-0.03,0.005-0.06,0.005-0.1,0.009c-0.108,0.015-0.228,0.024-0.342,0.031c-0.039,0.005-0.074,0.009-0.114,0.009    c0.089-0.004,0.179-0.009,0.263-0.016c0.064-0.005,0.135-0.01,0.193-0.015c0.06,0,0.114-0.005,0.174-0.014c0.015,0,0.024,0,0.04,0    c0.044-0.005,0.099-0.01,0.148-0.015l0.248-0.021c0.108-0.015,0.203-0.024,0.282-0.04c0.029-0.005,0.069-0.005,0.099-0.015    c0.03,0,0.07-0.01,0.1-0.01c0.029-0.01,0.069-0.015,0.1-0.021c0.069-0.01,0.119-0.02,0.158-0.024c0.01,0,0.015-0.005,0.02-0.005    c0.025,0,0.055-0.01,0.079-0.014C54.405,92.579,54.396,92.579,54.386,92.579L54.386,92.579z M49.944,92.815    c0.287,0.03,0.585,0.035,0.877,0.016h0.01c0.471-0.025,0.947-0.099,1.418-0.164c-1.552,0.049-2.345,0.07-2.791,0.07    C49.617,92.777,49.78,92.796,49.944,92.815z M49.954,92.87c-0.149,0-0.287,0-0.436-0.005c-0.925-0.015-1.822-0.06-2.617-0.109    c-0.196-0.014-0.385-0.023-0.568-0.035c-0.042-0.005-0.082-0.005-0.124-0.01c-0.002,0-0.002,0-0.002,0c-0.008,0-0.011,0-0.018,0    c-0.084-0.009-0.174-0.014-0.255-0.019c-0.119-0.01-0.238-0.021-0.35-0.025c0.104,0.016,0.208,0.025,0.305,0.035h0.002    c0.005,0,0.005,0,0.005,0c1.267,0.084,2.439,0.163,3.76,0.173c0.392,0.006,0.803,0,1.24-0.01c-0.278,0.005-0.556,0.01-0.823,0.005    C50.033,92.87,49.994,92.87,49.954,92.87z M41.557,92.058c0.007,0,0.018,0,0.03,0c-0.03-0.005-0.059-0.01-0.091-0.015    C41.52,92.048,41.537,92.053,41.557,92.058z M41.411,92.033c0.029,0,0.06,0.005,0.084,0.01c-0.027-0.005-0.058-0.01-0.087-0.016    C41.411,92.027,41.411,92.033,41.411,92.033z M35.425,90.253c0,0-0.009-0.009-0.015-0.009c-0.158-0.071-0.161-0.115-0.168-0.17    c0.037-0.02,0.075-0.038,0.126-0.05c0.039-0.005,0.084-0.01,0.139,0c0.037,0,0.079,0.012,0.128,0.021    c0.055,0.01,0.124,0.024,0.209,0.05c0.029,0.01,0.059,0.02,0.097,0.029c0.012,0.005,0.034,0.009,0.052,0.016    c0.039,0.01,0.075,0.024,0.119,0.038c0.022,0.007,0.05,0.012,0.075,0.026c0.017,0.005,0.037,0.009,0.059,0.014    c0.025,0.01,0.054,0.015,0.079,0.03c0.126,0.04,0.27,0.09,0.431,0.145c0.092,0.033,0.188,0.068,0.292,0.108    c0.149,0.05,0.308,0.109,0.486,0.173c0.768,0.278,1.41,0.472,1.913,0.595c0.065,0.017,0.127,0.03,0.187,0.045    c0.086,0.021,0.168,0.035,0.245,0.05c0.072,0.015,0.144,0.025,0.203,0.035c0.077,0.015,0.149,0.023,0.214,0.028    c0.044,0.007,0.086,0.012,0.123,0.012c0.022,0,0.047,0,0.069,0c0.063,0,0.115-0.005,0.151-0.017c0.005,0,0.008-0.004,0.01-0.004    c0.017-0.005,0.032-0.01,0.047-0.015c0.325-0.198-0.042-0.446-0.677-0.699c-0.431-0.168-0.979-0.342-1.52-0.505    c-0.141-0.04-0.277-0.085-0.416-0.125c-0.094-0.024-0.178-0.055-0.255-0.083c-0.193-0.065-0.345-0.125-0.459-0.18    c-0.005,0-0.005,0-0.007,0c-0.272-0.139-0.329-0.252-0.248-0.361c0.042-0.07,0.133-0.129,0.26-0.193    c0.342-0.063,0.795-0.312,1.13-0.233c0.372,0.09,0.736,0.203,1.096,0.328c-0.188-0.075-0.389-0.154-0.63-0.253    c-0.111-0.05-0.23-0.1-0.35-0.148c0.002,0.019,0.005,0.044,0.01,0.063l-0.256-0.099c-0.176-0.069-0.176-0.069-1.331,0.113    c-0.034,0.016-0.064,0.03-0.097,0.04c-0.099,0.05-0.29,0.144-0.302,0.283c-0.005,0.014-0.005,0.028,0,0.049    c0,0.005,0,0.005,0,0.005c0.013,0.069,0.069,0.149,0.198,0.238c0.164,0.119,0.441,0.253,0.893,0.406    c0.097,0.029,0.188,0.064,0.277,0.09c1.413,0.475,2.022,0.688,2.233,0.837c0.079,0.056,0.102,0.099,0.089,0.148    c-0.007,0.05-0.047,0.094-0.102,0.153c-0.005,0-0.005,0-0.005,0c-0.007,0.012-0.015,0.016-0.022,0.021    c-0.005,0-0.012,0.005-0.022,0.005c-0.198,0.03-0.51-0.019-0.872-0.108c-0.08-0.021-0.159-0.04-0.241-0.064    c-0.362-0.099-0.746-0.224-1.09-0.347c-0.176-0.065-0.367-0.125-0.575-0.205c-0.297-0.108-0.558-0.198-0.786-0.281    c-0.037-0.015-0.077-0.025-0.113-0.035c-0.119-0.045-0.229-0.078-0.326-0.113c-0.052-0.021-0.104-0.035-0.151-0.05    c-0.088-0.03-0.17-0.059-0.245-0.08c-0.044-0.014-0.084-0.028-0.122-0.033c-0.097-0.035-0.179-0.056-0.25-0.075    c-0.042-0.01-0.08-0.02-0.114-0.024c-0.015-0.006-0.03-0.006-0.04-0.011c-0.037-0.01-0.066-0.015-0.099-0.015    c-0.176-0.03-0.27-0.01-0.347,0.03c0,0-0.003,0.015-0.003,0.02c0,0.01,0,0.02,0,0.03c-0.005,0.015-0.007,0.028-0.007,0.045    c0.022,0.02,0.05,0.05,0.072,0.068l0.004,0.005l0,0l0.022,0.015c0.122,0.05,0.236,0.09,0.345,0.135    c0.967,0.347,1.611,0.568,2.261,0.768c0.002,0,0.01,0.006,0.017,0.011c0.331,0.1,0.665,0.198,1.039,0.298    c0.503,0.137,1.086,0.286,1.846,0.475c0.226,0.06,0.464,0.113,0.719,0.184c0.154,0.035,0.318,0.074,0.486,0.119h-0.015    c0.01,0,0.022,0,0.034,0.004c0.107,0.017,0.214,0.036,0.325,0.055c-3.445-0.951-5.113-1.412-5.929-1.66    C35.725,90.367,35.54,90.298,35.425,90.253z M51.893,92.826c-0.005,0-0.005,0-0.005,0c-0.05,0.005-0.1,0.005-0.148,0.01    c0.084-0.005,0.168-0.005,0.257-0.01c0.021-0.006,0.04-0.006,0.06-0.006c0.06,0,0.119-0.005,0.179-0.015    c-0.02,0.005-0.035,0.005-0.05,0.005C52.086,92.815,51.986,92.82,51.893,92.826z M51.739,92.836    c-0.283,0.01-0.565,0.024-0.843,0.029C51.164,92.86,51.446,92.846,51.739,92.836z M49.458,92.737    c0.159,0.04,0.322,0.059,0.486,0.078c0.287,0.03,0.585,0.035,0.877,0.016h0.01c0.471-0.025,0.947-0.099,1.418-0.164    C50.697,92.716,49.904,92.737,49.458,92.737z M45.56,92.662c-0.097-0.01-0.191-0.02-0.288-0.034    c0.083,0.015,0.162,0.02,0.241,0.034c-0.022,0-0.042,0-0.063-0.005c0.164,0.025,0.328,0.045,0.491,0.059    c-0.136-0.019-0.277-0.033-0.421-0.054C45.53,92.662,45.545,92.662,45.56,92.662z M42.142,92.171l-0.094-0.015    c0.958,0.168,2.128,0.328,3.155,0.461c-1.053-0.145-2.226-0.326-3.242-0.496C42.021,92.138,42.08,92.151,42.142,92.171z     M39.822,89.43c-0.063-0.024-0.129-0.045-0.191-0.068c0.28,0.113,0.537,0.207,0.868,0.327c0.004,0.005,0.009,0.005,0.009,0.005    c-0.208-0.085-0.424-0.169-0.64-0.243C39.854,89.445,39.837,89.436,39.822,89.43z" data-part-id="logo__item--logo_0__5"></path>
		<path fill="#FFFFFF" d="M65.732,89.633c0.084-0.043,0.173-0.078,0.243-0.138c-0.104,0.038-0.188,0.104-0.287,0.148    c0.099-0.089,0.207-0.164,0.291-0.264c0.124-0.143,0.224-0.307,0.362-0.43c0.055-0.05,0.159-0.13,0.248-0.125    c0.149,0.01,0.564-0.293,0.957-0.893c0.024-0.01,0.054-0.02,0.079-0.028C67.105,88.681,66.471,89.267,65.732,89.633L65.732,89.633    z" data-part-id="logo__item--logo_0__6"></path>
		<g>
			<g>
				
					<radialGradient id="SVGID_13_" cx="981.4688" cy="-1748.2979" r="56.448" gradientTransform="matrix(0.9286 0.371 -0.371 0.9286 -1497.1166 1304.9257)" gradientUnits="userSpaceOnUse">
					<stop offset="0" style="stop-color:#FFFFFF"></stop>
					<stop offset="0.2191" style="stop-color:#FFFFFF"></stop>
					<stop offset="0.3325" style="stop-color:#F1F1F1"></stop>
					<stop offset="0.5461" style="stop-color:#CCCCCC"></stop>
					<stop offset="0.6798" style="stop-color:#B2B2B2"></stop>
					<stop offset="1" style="stop-color:#90908F"></stop>
				</radialGradient>
				<path fill="url(#SVGID_13_)" d="M69.207,39.518c-3.351-1.338-6.762-2.587-9.602-3.604c-2.851-1.016-5.125-1.81-6.211-2.245      c-0.159-0.065-0.303-0.12-0.406-0.169c-0.333-0.149-0.704-0.307-1.101-0.465c-3.034-1.21-7.646-2.598-7.646-2.598      s-1.591,0.481-3.76,1.611c2.184,6.315,8.539,12.764,17.335,16.745c0.446,0.203,0.892,0.397,1.338,0.58l0.833,0.332      c9.468,3.669,18.916,3.381,24.528-0.341c-0.298-0.873-0.715-1.666-1.28-2.33C81.283,44.733,75.334,41.967,69.207,39.518      L69.207,39.518z" data-part-id="logo__item--logo_0__7"></path>
			</g>
		</g>
		<path fill="none" d="M71.081,80.077c-0.09-0.814-0.833-0.348-0.848-0.343c-1.532,1.025-1.646,1.101-1.72-2.668    c-0.011-0.297-0.016-0.613-0.021-0.951c-0.169,0.03-0.327,0.065-0.485,0.104c0.029,0.302,0.068,0.61,0.1,0.908    c0.158,1.457,0.247,2.81,0.262,4.059c0.005,0.243,0.005,0.486,0,0.719c-0.005,0.655-0.034,1.27-0.084,1.85    c-0.01,0.133-0.02,0.263-0.04,0.391c-0.02,0.214-0.045,0.427-0.074,0.625c-0.089,0.645-0.208,1.23-0.361,1.76    c0.118-0.064,0.248-0.123,0.366-0.183c0.148-0.68,0.268-1.229,0.367-1.676c0.05-0.253,0.104-0.472,0.148-0.664    c0.04-0.165,0.079-0.309,0.119-0.427c0.258-0.888,0.451-0.888,0.961-0.893c0.883,0,1.23-1.665,1.24-1.735    c0.01-0.059,0.024-0.108,0.029-0.163C71.091,80.483,71.101,80.25,71.081,80.077z M68.211,86.476L68.211,86.476    c0.045-0.015,0.084-0.023,0.124-0.035c-0.04,0.016-0.09,0.035-0.129,0.05C68.206,86.485,68.211,86.48,68.211,86.476z" data-part-id="logo__item--logo_0__8"></path>
		<path fill="#0E73B9" d="M58.937,43.632c0,0,0-0.015-0.006-0.025c-0.232,0.095-0.46,0.188-0.693,0.287    c0.075,0.159,0.144,0.327,0.213,0.491l0.654-0.287C59.045,43.944,58.996,43.786,58.937,43.632z M65.578,60.927l-0.932-2.22    c-0.035-0.09-0.069-0.185-0.099-0.273c-0.05-0.143-0.1-0.286-0.148-0.436c-0.011-0.03-0.021-0.065-0.03-0.094    c-0.193,0.083-0.456,0.198-0.649,0.287c0.075,0.223,0.144,0.445,0.213,0.669c0.303,0.933,0.586,1.854,0.853,2.767    c0.288-0.094,0.565-0.184,0.848-0.259c0.024-0.01,0.045-0.02,0.064-0.029C65.657,61.205,65.623,61.065,65.578,60.927z" data-part-id="logo__item--logo_0__9"></path>
		<path fill="none" d="M59.393,42.864c0.01,0,0.01,0,0.01,0l0,0C59.402,42.864,59.402,42.864,59.393,42.864 M59.393,42.864    c0,0,0,0,0,0.005 M58.931,43.607c-0.044-0.128-0.084-0.252-0.129-0.381l-0.034-0.099c-0.045,0.015-0.085,0.03-0.119,0.044    c0.04,0.085,0.079,0.164,0.129,0.243l-0.193,0.119c-0.134,0.074-0.268,0.154-0.401,0.233c0.015,0.044,0.04,0.084,0.055,0.128    C58.471,43.795,58.698,43.702,58.931,43.607 M65.633,61.368c0.035-0.01,0.064-0.02,0.104-0.029h0.01    c-0.05-0.124-0.114-0.287-0.169-0.412c0.045,0.139,0.079,0.278,0.119,0.412C65.678,61.349,65.657,61.358,65.633,61.368" data-part-id="logo__item--logo_0__10"></path>
		<path fill="#0E73B9" d="M66.719,49.709c1.666,4.898-0.624,4.557-1.378,4.443c-2.201-0.328-1.269,2.741-0.972,3.752    c-0.188,0.083-0.456,0.203-0.649,0.287c-1.105-3.391-2.395-6.91-3.867-10.494c-0.46-1.125-0.927-2.226-1.402-3.312l0.654-0.287    c1.125,3.157,2.404,6.736,4.729,4.188C65.589,46.374,66.322,48.545,66.719,49.709L66.719,49.709z" data-part-id="logo__item--logo_0__11"></path>
		<path fill="#231F20" d="M62.669,85.37c-0.005-0.068-0.015-0.148-0.044-0.233c-0.011-0.049-0.021-0.094-0.04-0.139    c-0.317-0.857-0.773-1.264-1.24-1.322l0,0c-0.178-0.031-0.356,0-0.545,0.068l0,0c-0.268,0.104-0.521,0.302-0.753,0.571    c-0.764,0.901-1.547,0.465-2.201-0.333c-0.198-0.238-0.387-0.515-0.556-0.793c-0.585-0.971-0.971-2.018-0.971-2.048    c-0.526,0.168-1.229,0.378-1.751,0.536c-0.282,0.108-0.555,0.223-0.827,0.347c-0.396,0.213-1.051,0.556-0.942,0.922    c0.04,0.12,0.159,0.243,0.412,0.367c0.417,0.203,0.738,0.406,0.977,0.604l0,0c0.619,0.536,0.555,1.061-0.198,1.58    c-0.021,0.021-0.055,0.04-0.084,0.057c-0.164,0.108-0.353,0.213-0.57,0.316c-0.1,0.05-0.198,0.1-0.308,0.144    c-0.069,0.024-0.129,0.055-0.188,0.074c-1.517,0.555-2.379-0.386-2.617-0.709c-0.02-0.023-0.035-0.045-0.044-0.063    c-0.095-0.135-0.183-0.253-0.273-0.356c-0.009-0.005-0.014-0.012-0.02-0.021c-0.589-0.663-1.207-0.768-2.04-0.495    c-0.005,0-0.005,0.004-0.012,0.004c-0.032,0.012-0.067,0.026-0.102,0.036c-0.149,0.054-0.307,0.119-0.471,0.193    c-0.372,0.168-0.783,0.392-1.247,0.653c4.913,2.692,4.278,2.9,3.772,3.064c-0.634,0.203-1.373-0.313-1.948,0.282    c0.466,0.906,3.683,1.884,4.585,1.546h0.005c0,0,0,0,0.005,0v-0.005c0,0,0,0,0,0.005c0.198-0.158-0.03-0.52,0.268-0.619    c0.148-0.039,0.382-0.119,1.304,0.119c0.353,0.094,0.709,0.198,1.056,0.307c0.224,0.07,0.441,0.135,0.665,0.203    c0.024,0.016,0.059,0.025,0.089,0.035c0.6,0.18,1.21,0.343,1.834,0.427c0.387,0.055,0.893-0.219,1.27-0.313    c0.267-0.068,0.307-0.093,0.396-0.158v-0.073c-0.694-0.501-1.701-0.03-2.33-0.734c-0.337-0.371,0.481-0.763,0.922-0.838    c0.685-0.108,1.338,0.193,1.725,0.521c0.867,0.713,1.656,0.293,2.747-0.293c-2.945-2.235-1.542-2.568-1.527-2.568    c0.535-0.104,1.12,0.085,1.611-0.267c0.02-0.015,0.059-0.05,0.099-0.104C62.625,85.771,62.693,85.613,62.669,85.37z" data-part-id="logo__item--logo_0__12"></path>
		<path fill="#231F20" d="M49.26,67.49c-1.709,0.333-3.086,0.923-3.467,1.096c-0.122,0.054-0.282,0.129-0.404,0.188    c-1.274,0.63-3.2,1.587-0.694,3.296c1.237,0.843,2.236,2.092-0.012,3.268c-2.623,1.372-3.322-1.057-3.5-2.167    c-0.386-2.398-4.107-0.376-6.328,0.833c-1.68-1.879-2.538-3.286-2.828-3.808c-0.903-1.601,0.111-2.012,1.115-2.081    c0.03,0,2.702-0.318,0.607-3.484c-2.303-3.48-3.606-1.442-3.75-1.195c-0.196,0.343-1.229,1.938-2.23-0.059    c-0.367-0.729-0.897-2.345-1.576-4.788h0.015l-0.002-0.017c1.237-0.203,2.109-0.54,2.528-0.699    c0.097-0.044,0.191-0.078,0.29-0.118c3.398-1.175,2.521-2.925,1.465-3.772c-0.493-0.396-2.779-2.463,0.686-4.262    c2.979-1.156,3.763,0.138,3.5,1.734c-0.456,2.791,1.366,4.778,6.724,0.193c2.094,3.644,3.247,5.652,0.255,5.959    c-1.794,0.188-2.403,1.367-1.589,3.067c0.828,1.735,2.499,4.481,4.4,3.348c0.545-0.396,0.818-1.076,1.432-1.404    c0.03-0.015,0.297-0.138,0.793,0.219C47.582,63.48,48.247,65.077,49.26,67.49L49.26,67.49z" data-part-id="logo__item--logo_0__13"></path>
		<path fill="#0E73B9" d="M22.163,70.593c1.467,2.866-0.962,1.974-1.242,1.865c-0.335-0.135-0.833-0.189-0.396,0.921    c0.656,1.662,2.347,3.594,3.879,5.279c-0.649,0.506-1.537,1.062-2.063,0.798c-1.519-0.753-1.916-2.576-3.296-3.459    c-1.034-0.659-1.812,0.356,0.864,2.89c1.408,1.334,1.411,1.542,1.413,1.7c-0.208,0.153-0.711-0.06-0.994-0.203    c-1.66-1.766-3.041-3.763-4.592-5.616c0.054,0.153,0.054,0.153,0.252,0.445l-1.207-1.854c-0.493-0.878-1.185-2.027-1.638-2.93    c0.069,0.14,0.141,0.278,0.218,0.411c0.012-0.133,0.012-0.138-0.509-1.273c-1.554-3.399-2.146-5.305-2.151-5.319    c-0.002-0.014,0.223-0.649,0.57-0.227c0.28,0.336,0.589,1.294,0.855,2.16c0.211,0.68,0.952,2.86,1.69,2.533    c2.513-1.482-2.59-4.892,0.025-6.192l1.267-0.257c0.654,3.128,2.726,8.174,3.729,6.594C19.533,67.773,20.185,66.746,22.163,70.593    L22.163,70.593z" data-part-id="logo__item--logo_0__14"></path>
		<path fill="#0E73B9" d="M25.637,58.067c-1.244,0.025-2.018,0.233-2.365,0.352c-0.126,0.05-0.292,0.104-0.416,0.153    c-1.073,0.441-2.697,1.105-0.746,3.521c1.375,1.705,1.44,2.914,0.196,3.594c-2.018,1.091-2.727-1.78-2.819-3.45    c-0.136-2.448-3.105-1.056-4.225-0.531c-1.146-3.073-1.396-4.962-1.396-4.981c-0.146-1.159,0.133-1.71,0.769-1.512    c0.156,0.045,1.492,0.371,0.991-2.746c-0.456-2.84-1.095-3.628-1.888-2.339c-0.37,0.595-0.828,0.961-0.93-0.694    c-0.077-1.244,0.318-4.64,0.322-4.675c0.038,0.01,3.775,0.58,2.818-3.237c-0.174-0.694-0.396-2.414,1.293-3.396    c1.664-0.5,1.688,0.862,1.208,2.191c-1.046,2.865,0.114,4.119,3.448,1.343c0.684,4.417,0.867,5.601-0.776,5.329    c-1.15-0.184-2.097,0.882-0.979,4.51c1.105,3.589,2.285,2.058,2.729,1.482C23.761,51.821,24.234,52.957,25.637,58.067    L25.637,58.067z" data-part-id="logo__item--logo_0__15"></path>
		<path fill="#0E73B9" d="M10.201,40.856c0.04-0.153,0.089-0.332,0.141-0.485C10.296,40.529,10.249,40.693,10.201,40.856z" data-part-id="logo__item--logo_0__16"></path>
		<path fill="#0E73B9" d="M16.462,35.582c-0.629,2.25-1.318,2.187-1.785,1.735c-0.01,0.005-1.234,0.347-1.743,6.95    c-1.995,1.626-2.054,1.314-1.935,0.188c0.034-0.337,0.099-0.669,0.168-1.001c0,0,0,0,0-0.005c0.089-0.396,0.179-0.793,0.247-1.195    l0,0c0.038-0.243,0.065-0.491,0.07-0.744c0.013-0.277-0.03-0.699-0.394-0.376c-0.664,0.589-1.053,2.226-1.15,3.589    c-0.131,1.943-0.347,2.201-0.553,2.29c-0.102-0.055-0.265-0.109-0.327-0.208c0.3-2.23,0.989-4.382,1.341-6.603    c-0.018,0.049-0.042,0.109-0.06,0.168c0.394-1.343,0.858-2.671,1.383-3.97c0.002-0.006,0.007-0.006,0.007-0.006    c0.142-0.271,0.263-0.555,0.384-0.837c0,0,0.002-0.005,0.007-0.015c0.005-0.015,0.012-0.025,0.018-0.04    c0.193-0.421,1.335-2.915,2.206-4.362c0-0.011,0.002-0.011,0.007-0.015c0.263-0.441,0.503-0.789,0.682-0.947    c0.014,0.029,0.037,0.064,0.052,0.094c-0.6,1.298-1.715,2.345-1.903,3.846c0.02,0.015,0.055,0.03,0.074,0.045    c0.387-0.238,0.687-0.541,0.937-0.882c0.938-1.254,1.172-3.024,2.392-4.075c0.162-0.134,0.337-0.263,0.536-0.377l0.542-0.178    c-1.538,2.518-2.592,5.145-2.441,5.636c0.097,0.039,0.211,0.084,0.694-0.5c0.503-0.61,0.719-0.66,0.825-0.685    C16.878,33.203,17.089,33.351,16.462,35.582z" data-part-id="logo__item--logo_0__17"></path>
		<g>
			<polyline fill="none" points="30.01,38.388 30.01,38.388 30.01,38.383 30.01,38.388 30.01,38.388" data-part-id="logo__item--logo_0__18"></polyline>
			<path fill="#0E73B9" d="M33.42,24.523c0.161,1.22-0.777,1.373-1.349,1.353c-2.042-0.069-2.272,3.812-1.291,4.441     c1.276,0.813,1.915-1.888,3.08-0.912c0.216,0.178,0.545,0.456,1.23,4.516c-2.033,0.913-6.789,3.049-5.081,4.466     c2.983,4.055-2.167,4.546-2.229,4.536c-1.058-0.179-0.823-1.933-0.724-2.469c0.895-4.877-4.593,0.02-4.825,0.233     c-0.06-0.649-0.142-1.521-0.201-2.171c-0.011-3.49,0.699-3.367,1.119-3.292c1.163,0.204,1.792-0.704,2.107-3.033     c0.178-1.329,0.55-4.09-1.202-2.459c-1.192,1.115-1.13,0.183-1.083-0.124c0.097-0.645,0.281-1.527,0.9-3.197     c1.695-0.119,3.777-1.452,3.317-3.361c-0.209-0.858,0.817-1.954,1.888-2.484c0.377-0.124,1.379-0.46,0.439,1.463     c-0.751,1.546-0.206,1.641,0.384,1.447c0.008,0,0.944-0.313,2.766-1.655c0.179,0.619,0.405,1.442,0.605,2.052     C33.321,24.052,33.392,24.291,33.42,24.523L33.42,24.523z" data-part-id="logo__item--logo_0__19"></path>
		</g>
		<path fill="#0E73B9" d="M75.934,41.069c0.392,1.195-0.044,1.705-1.273,1.507c-2.558-0.401-1.527,3.421-0.962,4.789    c0.882,2.146,2.072,1.566,2.577,0.957c1.478-1.765,2.097,0.555,2.3,1.313c0.437,1.646,0.635,3.039,0.784,4.302    c-4.18,1.884-5.681,3.391-4.457,4.477c2.727,4.496-2.052,4.699-2.106,4.689c-1.061-0.238-0.862-2.231-0.813-2.621    c0.693-5.454-5.889,0.312-5.959,0.366c-0.292-0.704-0.674-1.642-0.967-2.35c-0.331-0.968-0.941-2.771-0.604-3.53    c0.472-1.051,1.611-0.292,2.395-0.525c2.132-1.155-0.179-6.925-1.344-7.355c-1.61-0.601-2.131,2.295-3.727,1.328    c-0.354-0.213-0.849-0.506-2.425-5.036c5.795-0.903,6.494-3.411,3.827-5.319c-2.841-2.032,0.099-3.743,0.714-4.065    c2.161-0.713,3.316,0.124,3.435,2.494c0.154,2.969,2.523,2.855,5.771-0.282c0.669,1.046,1.571,2.428,2.2,3.494    C75.537,40.138,75.761,40.549,75.934,41.069L75.934,41.069z" data-part-id="logo__item--logo_0__20"></path>
		<path fill="#0E73B9" d="M59.264,33.461c1.378,2.834-2.419,2.438-2.583,2.419c-2.503-0.278-0.669,3.247,1.457,7.326    c-1.725,1.001-2.88,1.531-3.197,1.67c-1.318,0.58-3.312,1.457-3.568-1.185c-0.158-1.566-1.329-2.746-3.535-1.635    c-2.05,1.036-3.477,2.746-1.331,4.446c0.636,0.51,1.869,1.779-0.382,2.721c-0.414,0.178-0.414,0.178-4.585,1.274    c-1.435-7.559-3.182-7.228-4.389-5.611c-3.12,4.154-4.072-1.625-4.077-1.685c-0.38-3.024,1.351-2.905,1.891-2.796    c2.265,0.457,4.377-0.867,0.902-6.369c1.187-0.685,1.784-0.972,2.34-1.224c0.853-0.396,2.627-1.22,2.679,1.115    c0.038,1.651,1.192,2.245,2.875,1.478c3.007-1.373,4.05-2.632,3.094-3.748c-0.454-0.521-1.661-0.629-1.361-1.556    c0.216-0.674,1.524-1.249,2.387-1.631l2.074-0.689c0.426,1.279,2.687,7.52,5.096,4.461C57.222,29.485,59.055,33.044,59.264,33.461    L59.264,33.461z" data-part-id="logo__item--logo_0__21"></path>
		<path fill="#0E73B9" d="M34.593,13.707c0.068-0.03,0.133-0.055,0.195-0.08c-0.019,0.01-0.042,0.02-0.064,0.025    c-0.025,0.01-0.049,0.02-0.072,0.03C34.629,13.691,34.615,13.697,34.593,13.707z" data-part-id="logo__item--logo_0__22"></path>
		<path fill="#0E73B9" d="M52.745,11.992c-0.68,0.015-1.576,0.025-2.246,0.044c-1.398,0.03-2.05-0.079-2.352-0.203    c-0.047-0.02-0.084-0.035-0.119-0.055c-0.709-0.42-4.26-0.133-4.667,0.06c0.589,0.119,1.224-0.164,1.781,0.213    c-0.297,0.134-3.41,0.322-3.482,0.322c-2.218,0.045-2.218,0.045-2.833,0.119c0.523-0.173,1.078-0.198,1.608-0.342    c-0.731-0.019-3.063,0.486-5.577,1.448c1.733-0.68,2.642-0.908,5.852-1.715c-0.025,0-0.627,0.069-2.486,0.58    c0.364-0.114,1.945-0.565,3.245-0.808c1.892-0.357,3.809-0.421,5.71-0.649c1.953-0.223,4.132-0.069,4.617,0.089    c-1.041,0.288-2.092-0.089-3.133,0.04c0.072,0.074,0.072,0.074,0.518,0.143c0.286,0.04,0.577,0.085,0.885,0.134    C50.797,11.531,51.629,11.694,52.745,11.992z" data-part-id="logo__item--logo_0__23"></path>
		<path fill="#0E73B9" d="M78.061,78.174c-0.421,0.728-1.186,1.877-1.557,1.367c-0.049-0.068-0.168-0.238-0.605,0.243    c-1.258,1.393-1.863,3.232-3.143,4.604c-0.257,0.283-0.769,0.472-1.1,0.675c-0.258,0.144-0.269,0.144-0.387,0.14    c0.005-0.095,0.01-0.215,0.704-1.077c1.675-2.082,0.068-1.66-0.521-1.109c-0.362,0.336-0.66,0.857-0.838,1.457    c-0.372,1.259-1.27,1.506-2.226,1.769c-0.016-0.029,0.252-3.306,1.233-3.275c1.22,0.028,1.814-2.399,1.686-3.168    c-0.138-0.768-0.808-0.579-1.219-0.263c-1.234,0.938-1.234,0.938-1.299-3.466c0.01-0.005,0.024-0.014,0.029-0.014l0.198-0.04    v-0.074l1.438-0.828c1.066-0.491,2.241-0.827,1.834,0.337c-0.267,0.759-0.971,2.771,1.686,1.745    c0.06-0.021,0.119-0.05,0.179-0.068c2.111-0.973,0.724-4.017,2.905-4.948c0.446-0.173,0.718-0.263,1.417-0.446    c-1.934,5.647-1.521,5.513-1.13,5.378c0.114-0.033,0.237-0.148,0.331-0.212c0.298-0.253,0.323-0.263,0.501-0.366    c0.11-0.045,0.148-0.062,0.184-0.08c0.064-0.005,0.145-0.015,0.203-0.026C78.695,76.542,78.894,76.72,78.061,78.174L78.061,78.174    z" data-part-id="logo__item--logo_0__24"></path>
		<path fill="#0E73B9" d="M43.139,83.035c0.755,0.739,1.479,1.507,2.265,2.222c-0.989,0.223-1.505,0.421-1.782,0.529    c-0.07,0.025-0.139,0.055-0.208,0.085c-0.903,0.263-1.814,0.902-0.632,1.572c0.919,0.524,2.028,0.589,2.91,1.204    c0.471,0.326,0.092,0.529-0.183,0.683c0.052,0.031,0.122,0.062,0.176,0.085c-0.064-0.023-0.126-0.05-0.191-0.078    c-0.865,0.231-2.236-0.193-3.673-1.136c-2.642-1.364-3.527,0.06-3.619,0.516c-2.721-1.17-4.094-2.013-4.082-2.494    c0.354-0.248,0.835,0.026,1.17-0.292c0.042-0.035,0.213-0.238-0.171-0.654c-0.618-0.674-3.895-3.039-4.784-3.188    c-0.178-0.03-0.446,0.025-0.573,0.153c-0.151,0.18-0.099,0.446-0.261,0.625c-1.019,0-3.061-2.275-4.55-3.936    c1.239-0.968,1.819-1.239,1.822-1.244c0.314-0.095,0.892-0.269,2.02,1.353c1.862,2.673,4.581,1.611,4.137-0.03    c-0.153-0.564-0.924-1.263-1.296-1.48c-0.007-0.007-0.86-0.536-0.625-1.103c0.322-0.786,3.562-1.794,3.738-1.827    c3.824,4.267,4.414,4.922,2.241,5.08c-0.811,0.06-1.411,0.684-0.218,1.885c0.034,0.033,3.279,3.027,4.067,1.124    C41.044,82.184,41.622,81.553,43.139,83.035L43.139,83.035z" data-part-id="logo__item--logo_0__25"></path>
		<path fill="#FFFFFF" d="M69.594,72.675c-0.148,0.06-0.298,0.125-0.456,0.189l0.005-0.119c-0.045-3.401-2.166-1.305-2.255-1.215    c-2.261,2.275-2.697-1.809-2.697-1.858c0.02-0.973,0.854-1.299,1.339-1.339c2.677-0.223,2.2-2.448,2.003-3.405    c0.228-0.094,0.465-0.188,0.693-0.287C68.86,67.48,69.316,70.172,69.594,72.675L69.594,72.675z" data-part-id="logo__item--logo_0__26"></path>
		<path fill="#0E73B9" d="M65.42,89.767c0,0.005-0.01,0.01-0.015,0.01c-0.01,0.005-0.025,0.012-0.034,0.017    c0.009-0.005,0.02-0.012,0.029-0.012c-0.308-0.059-0.446-0.495-0.838-0.341c-0.114,0.044-0.129,0.198-0.253,0.237    c-0.108,0.035-0.287-0.024-0.366-0.05c-0.407-0.138-0.407-0.138-1.181-0.763c2.132-0.506,2.201-1.482,1.637-1.844    c-0.57-0.371-0.982-1.205,0.347-1.875c1.238-0.465,1.294,0.661,1.13,1.394c-0.268,1.239,1.091,0.57,2.187,0.03    c-0.264,0.932-0.66,1.506-0.818,1.709c-0.06,0.075-0.169,0.194-0.258,0.27c-0.01,0.009-0.02,0.019-0.03,0.028    c-0.148,0.12-0.347,0.108-0.495,0.214c-0.303,0.213-0.437,0.57-0.719,0.804c-0.045,0.033-0.094,0.063-0.139,0.094    c0.074-0.03,0.144-0.07,0.213-0.105c-0.104,0.065-0.326,0.165-0.357,0.175C65.445,89.763,65.435,89.767,65.42,89.767L65.42,89.767    z" data-part-id="logo__item--logo_0__27"></path>
		<path fill="#0E73B9" d="M35.779,13.598c-0.188,0.054-0.431,0.129-0.617,0.183c-0.228,0.065-0.238,0.113-0.228,0.168    c-0.03,0.015-0.062,0.03-0.091,0.04c-0.03,0.01-0.063,0.024-0.097,0.04c-0.193-0.179-0.345-0.248-0.456-0.203    c0.027-0.011,0.057-0.02,0.083-0.03c0.002-0.005,0.005-0.005,0.007-0.01c0.025-0.005,0.047-0.01,0.067-0.02    c0.018-0.005,0.032-0.005,0.047-0.015c0.01-0.004,0.02-0.004,0.027-0.01c0.01,0,0.015-0.005,0.022-0.005    c0.014-0.009,0.03-0.009,0.042-0.015c0.01-0.005,0.018-0.005,0.022-0.005c0.01-0.005,0.015-0.005,0.02-0.009    c0.007,0,0.013-0.005,0.022-0.005c0.002,0,0.009,0,0.015-0.005c0.005,0,0.014,0,0.014,0c0.011-0.01,0.015-0.01,0.025-0.01    c0.013-0.005,0.027-0.01,0.045-0.01c0.007-0.005,0.02-0.01,0.029-0.01c0.002-0.005,0.007-0.005,0.007-0.005s0.006,0,0.01,0    c0.03-0.01,0.062-0.01,0.089-0.025h0.011c0.039-0.01,0.082-0.015,0.119-0.025c0.046-0.005,0.093-0.014,0.138-0.014    c0.03-0.01,0.054-0.01,0.079-0.01c0.027-0.005,0.052-0.005,0.074-0.01C35.49,13.568,35.633,13.583,35.779,13.598z" data-part-id="logo__item--logo_0__28"></path>
		<path fill="#0E73B9" d="M40.567,13.955c0.744,0.287,1.27,0.669,0.833,0.862c-0.545,0.243-1.896-0.163-1.666,0.649    c0,0,0.208,0.57,2.364,1.83c-0.645,0.367-1.135,0.584-1.368,0.694c-0.62,0.282-1.554,0.704-1.889-0.406    c-0.082-0.263-0.436-1.086-1.66-0.61c-0.097,0.04-2.375,0.942-1.706,1.878c0.045,0.055,0.079,0.114,0.122,0.168    c0.178,0.223,0.726,0.302,0.543,0.665c-0.218,0.431-0.952,0.753-1.604,1.041c0.013,0.044,0.022,0.089,0.033,0.129l-0.097-0.104    l-1.373,0.476c0.122-1.968-0.317-3.5-1.17-2.652c-0.712,0.705-1.138,1.131-1.181,0.401c-0.027-0.476,0.633-2.448,1.399-2.077    c0.007,0,0.602,0.208,0.952-1.402c0.094-0.426,0.255-0.764,0.275-0.789c0.005-0.01,0.769-0.471,0.957-0.332    c0.243,0.179,0.047,0.694,0.441,0.708c0.369,0.02,1.058-0.376,1.016-0.645c-0.064-0.411-0.525-0.267-0.746-0.465    c0.002-0.02,0.007-0.049,0.01-0.074c0.03-0.015,0.065-0.04,0.097-0.054c0.235-0.085,0.48-0.144,0.724-0.219    c0.816,0.144,1.492,0.828,2.399,0.629c0.322-0.064,0.322-0.516,0.662-0.56C39.502,13.622,40.323,13.87,40.567,13.955    L40.567,13.955z" data-part-id="logo__item--logo_0__29"></path>
		<path fill="#0E73B9" d="M34.156,13.885c0.01-0.005,0.022-0.005,0.032-0.01C34.116,13.91,34.047,13.95,33.982,14    c0,0-0.005,0.005-0.01,0.005c-0.018,0.009-0.033,0.02-0.042,0.029c-0.104,0.08-0.593,0.625-0.609,0.649    c-0.072,0.015-0.268,0.055-0.412,0.124c-0.133,0.045-0.424,0.169-0.789,0.521c-0.034,0.04-0.074,0.079-0.106,0.119    c-0.064,0.075-0.119,0.154-0.167,0.243c-0.077,0.129-0.133,0.262-0.208,0.391c-0.212,0.352-0.444,0.58-0.629,0.719    c-0.084,0.065-0.161,0.114-0.221,0.149c-0.108,0.059-0.257,0.153-0.34,0.248c0.022-0.029,0.042-0.069,0.067-0.099    c-0.142,0.05-0.57,0.213-0.434-0.089c0.037-0.079,0.178-0.282,0.699-0.753c0.009-0.004,0.877-0.793,0.988-0.942    c-0.002-0.01-0.005-0.019-0.012-0.025c-0.164,0.045-0.528,0.253-0.853,0.446c0.553-0.406,1.108-0.769,1.66-1.076    c0.013-0.009,0.022-0.014,0.035-0.024c0.285-0.159,0.575-0.307,0.865-0.436c0.033-0.025,0.064-0.035,0.097-0.049    c-0.015,0.009-0.032,0.014-0.05,0.024c0.176-0.074,0.347-0.154,0.516-0.233l0.062-0.029h0.002c0.002,0,0.005,0,0.007-0.005    c0.007,0,0.01-0.005,0.015-0.005l0.033-0.015c-0.005,0.005-0.011,0.009-0.015,0.009c-0.037,0.02-0.072,0.035-0.106,0.055    c0.029-0.015,0.064-0.035,0.097-0.049c0.002,0,0.005,0,0.01-0.006c0.004,0,0.01-0.004,0.018-0.009h0.002H34.156z" data-part-id="logo__item--logo_0__30"></path>
		<rect x="34.188" y="13.87" fill="#0E73B9" width="0" height="0.005" data-part-id="logo__item--logo_0__31"></rect>
		<path fill="#0E73B9" d="M73.906,85.097c-0.525,0.378-1.11,0.774-1.557,1.063c0.219-0.153,0.437-0.303,0.654-0.456    c-4.313,2.646-4.392,2.696-6.702,3.697c3.055-1.353,4.621-2.443,4.636-2.453c-1.66,0.732-3.148,1.805-4.813,2.527    c0.169-0.074,0.386-0.173,0.555-0.248c3.352-1.575,5.131-3.127,5.146-3.147c-0.347,0.158-0.624,0.411-0.957,0.595    c0.016-0.015,3.307-3.138,3.654-3.376c0.015,0.025,0.04,0.065,0.049,0.09c-0.104,0.198-0.104,0.198-0.128,0.292    c0.55-0.089,2.775-2.622,3.588-3.871c0.495-0.754,0.495-0.754,1.131-1.03c0.207-0.08,0.207-0.08,0.327-0.035    c-0.396,1.551-2.027,2.116-2.717,3.431c0.446,0.068,2.122-1.646,3.034-2.816c0.455-0.584,0.833-1.016,1.189-1.2    c0.035,0.04,0.078,0.095,0.118,0.135c-1.922,2.24-2.845,3.079-5.061,5.091c0.203-0.118,0.371-0.278,0.551-0.416    C76.241,83.309,75.126,84.221,73.906,85.097L73.906,85.097z" data-part-id="logo__item--logo_0__32"></path>
		<path fill="#231F20" d="M77.674,25.639c0.873,0.897,1.407,1.214,1.591,0.947c0.263-0.377-0.312-2.311-0.479-2.558    c0,0-1.156-0.992-2.56-2.007c-2.543-1.844-3.112-2.36-3.241-2.607c-0.034-0.075-0.03-0.129-0.03-0.183    c0.08-0.055,0.174-0.174,0.219-0.263c-0.095-0.253-0.139-0.357-0.516-0.669c-0.932-0.753-3.063-1.869-3.787-1.982    c-0.01,0.055-0.021,0.134-0.025,0.188c0.362,0.451,0.878,0.769,1.15,1.294c-0.015,0.034-0.029,0.089-0.044,0.128    c-0.248,0.02-0.248,0.02-6.103-2.567c0.025,0.228,0.064,0.525,0.089,0.749c0.193,0.768,0.471,1.546,1.521,1.735    c1.121,0.208,2.578,0.744,3.113,2.122c0,0.015,0.174,0.6,0.14,1.125c-0.04,0.66-0.406,1.214-1.84,0.417    c-2.434-1.373-2.434-1.373-2.771-1.229c-0.208,0.232-0.347,0.391-0.664,2.28c5.199,1.934,6.514,3.906,4.769,4.689    c-3.148,1.418,2.696,4.561,2.761,4.59c1.433,0.57,1.577-0.749,1.334-1.71c-0.789-3.113,2.904-0.308,5.562,3.043    c0.347-0.555,0.813-1.289,1.14-1.854c0.02-0.049,0.04-0.099,0.06-0.143c0.486-1.23-0.366-1.968-1.086-2.355    c-0.095-0.054-0.173-0.099-0.263-0.133c-1.14-0.521-1.675-1.235-1.934-1.735c-0.079-0.149-0.172-0.356-0.228-0.51    c-0.124-0.327-0.218-0.749-0.237-1.131C75.26,24.33,75.721,23.63,77.674,25.639z" data-part-id="logo__item--logo_0__33"></path>
		<path fill="#0E73B9" d="M87.245,68.909c0.352-0.805,0.661-1.497,0.77-1.885c-0.224,0.243-1.766,3.668-1.775,3.698    c-0.347,0.956-0.982,1.829-2.021,3.276c0.742-1.284,1.367-2.622,1.457-3.118c-1.056,0.427-0.72,1.824-1.641,2.34    c0.005-0.123,0.005-0.356,0.569-1.785c0.03-0.088,0.08-0.203,0.115-0.286c0.41-1.013,1.272-1.745,1.699-2.748    c0.579-1.332,0.327-2.864,0.98-4.184c0.557-1.124,0.645-1.282,0.765-1.417c0.029,0.005,0.06,0.01,0.09,0.015    c0.059,0.635-0.298,1.229-0.188,1.869c0.023,0,0.059,0,0.078,0c0.481-0.6,1.402-3.078,1.487-4.188    c0.139-1.721,0.139-1.721,0.843-4.204c-0.073,1.255-0.248,2.5-0.347,3.749c0.049-0.104,0.084-0.199,0.269-1.19    C89.778,62.336,88.718,65.71,87.245,68.909L87.245,68.909z" data-part-id="logo__item--logo_0__34"></path>
		<path fill="#231F20" d="M25.144,23.116c-0.007,0.014-0.9,1.844-1.355,2.954c-2.598-0.02-3.267,1.76-3.436,2.825    c-0.466,2.979-1.819,3.029-1.831,3.029c-0.187-0.034-0.665-0.376,0.895-3.271c0.848-1.834,0.228-1.591-0.104-1.458    c-0.414,0.164-0.884,0.565-1.11,0.759c1.267-2.246,2.622-4.025,3.09-4.283c0.032,0.05,0.082,0.124,0.122,0.168    c0.521-0.247,4.268-4.625,4.291-4.659c-0.151,0.069-0.23,0.123-0.674,0.456c0.406-0.654,2.932-2.345,4.444-3.361    c0.218-0.119,0.444-0.228,0.665-0.342c-3.232,2.4-3.232,2.4-3.401,2.628c0.137,0.034,0.281,0,1.629-1.131    c1.636-1.373,1.923-1.442,2.258-1.521c-0.282,0.243-0.575,0.476-0.857,0.724c-0.857,0.749-1.487,1.725-2.404,2.419    c-0.354,0.268-0.826,0.342-1.14,0.68c-0.854,0.902-1.785,2.21-1.871,2.834c0.047,0.02,0.113,0.05,0.163,0.07    c0.379-0.198,0.518-0.778,1.086-0.684C25.587,22.119,25.583,22.223,25.144,23.116L25.144,23.116z" data-part-id="logo__item--logo_0__35"></path>
		<path fill="#0E73B9" d="M88.985,47.3c0.01,0.065,0.536,6.569-0.536,5.75c-0.187-0.148-0.217-0.479-0.534-0.465    c-0.337,0.014-0.486,0.392-0.526,0.51c-0.485,1.482-0.38,4.13-0.356,4.318c0.13,1.065,0.536,0.843,0.763,0.614    c0.536-0.529,0.591,0,0.586,0.252c0,0.318-0.01,1.28-1.407,5.284c-0.763-1.209-2.251-1.605-2.728,0.551    c-0.212,0.941-0.099,1.954-0.595,2.831c-0.381,0.675-1.185,1.006-1.417,0.719c-0.526-0.648,0.232-2.578,0.645-3.614    c0.808-2.875-1.601-2.398-3.109-1.858c-0.054,0.024-0.113,0.05-0.172,0.074c0.366-4.451,0.475-5.795,1.902-4.888    c1.131,0.72,1.735-0.392,1.79-3.296c0.03-1.403-0.118-4.491-2.077-2.976c-1.041,0.81-1.12-1.263-1.289-5.804    c1.959-0.505,2.95-0.431,3.133-0.406c0.477,0.055,1.013,0.565,0.81,2.686c-0.135,1.448,0.673,3.283,2.075,2.861    c2.043-0.609-0.658-4.749,1.424-4.293C87.727,46.234,88.916,46.552,88.985,47.3L88.985,47.3z" data-part-id="logo__item--logo_0__36"></path>
		<path fill="#0E73B9" d="M32.007,14.847c-0.002-0.005-0.002,0-0.005,0c0.002-0.005,0.007-0.005,0.012-0.01    c0.024-0.01,0.047-0.02,0.064-0.03c0.02-0.01,0.04-0.02,0.06-0.025c-0.018,0.005-0.035,0.011-0.05,0.02    c-0.012,0.005-0.03,0.02-0.042,0.025C32.032,14.837,32.021,14.842,32.007,14.847z" data-part-id="logo__item--logo_0__37"></path>
		<path fill="#0E73B9" d="M32.213,14.748c-0.02,0.01-0.045,0.019-0.064,0.029c0.007-0.004,0.017-0.01,0.021-0.015    c0.065-0.029,0.124-0.059,0.184-0.084c0.009-0.004,0.014-0.01,0.022-0.01c0.009-0.005,0.017-0.01,0.027-0.01    C32.339,14.683,32.275,14.713,32.213,14.748z" data-part-id="logo__item--logo_0__38"></path>
		<path fill="#0E73B9" d="M32.553,14.584c-0.05,0.025-0.097,0.05-0.146,0.07l0.007-0.005c0.029-0.015,0.063-0.03,0.097-0.045    C32.523,14.599,32.538,14.594,32.553,14.584z" data-part-id="logo__item--logo_0__39"></path>
		<path fill="#0E73B9" d="M33.076,14.352c0.057-0.025,0.116-0.055,0.176-0.08c-0.102,0.05-0.203,0.094-0.302,0.139    c-0.233,0.109-0.439,0.208-0.635,0.302c0,0,0,0-0.002,0c-0.007,0.005-0.012,0.005-0.018,0.005c-0.017,0.015-0.035,0.02-0.052,0.03    c-0.022,0.01-0.044,0.019-0.064,0.029c-0.008,0.005-0.01,0.005-0.013,0.005c-0.305,0.149-0.485,0.248-0.49,0.253l-1.881,1.041    c-0.305,0.169-0.612,0.342-0.922,0.505c0.067-0.044,0.216-0.138,0.448-0.277c-0.052,0.025-0.102,0.054-0.156,0.084    c-0.013,0.01-0.025,0.015-0.032,0.02c-0.06,0.03-0.119,0.064-0.186,0.099c-0.007,0.005-0.018,0.01-0.022,0.015    c-0.052,0.025-0.104,0.054-0.153,0.084c-0.016,0.005-0.025,0.015-0.04,0.02c-0.136,0.074-0.282,0.153-0.436,0.238    c0.035-0.02,0.067-0.04,0.102-0.06c0.037-0.025,0.079-0.05,0.119-0.074c0.025-0.015,0.052-0.03,0.077-0.045    c0.032-0.019,0.064-0.039,0.099-0.059c0.04-0.025,0.08-0.05,0.124-0.075c0.089-0.049,0.178-0.104,0.278-0.163    c0.083-0.049,0.171-0.099,0.262-0.154c0.027-0.014,0.055-0.029,0.082-0.044c0.022-0.015,0.052-0.03,0.075-0.044    c0.057-0.03,0.116-0.065,0.173-0.095c0.133-0.079,0.265-0.153,0.404-0.223c0.045-0.024,0.086-0.049,0.136-0.074    c0.174-0.099,0.35-0.193,0.531-0.282c0.022-0.01,0.042-0.025,0.062-0.035c0.03-0.015,0.06-0.03,0.089-0.044    c0.084-0.05,0.179-0.094,0.271-0.139c0.005-0.005,0.012-0.01,0.017-0.01c0.04-0.02,0.08-0.04,0.122-0.06    c0.055-0.029,0.109-0.054,0.164-0.079c0.03-0.02,0.062-0.034,0.091-0.044c0.02-0.015,0.044-0.025,0.069-0.035    c0.018-0.01,0.03-0.02,0.047-0.025c0.047-0.024,0.097-0.044,0.146-0.069c0,0,0.002-0.005,0.004,0    c0.03-0.02,0.057-0.035,0.087-0.045c-0.008,0-0.013,0.005-0.022,0.01c-0.005,0-0.008,0.005-0.013,0.005    c-0.005,0.005-0.01,0.005-0.02,0.01c-0.012,0.01-0.027,0.02-0.039,0.025c-0.005,0-0.011,0.005-0.015,0.01    c-0.007,0.005-0.018,0.005-0.027,0.01c-0.045,0.024-0.097,0.049-0.149,0.079c0.241-0.124,0.494-0.248,0.764-0.377    c0.057-0.024,0.119-0.054,0.178-0.084c0.005-0.005,0.012-0.005,0.02-0.01c0.035-0.014,0.066-0.034,0.099-0.044    c0.035-0.015,0.07-0.035,0.106-0.049c0.01-0.006,0.02-0.011,0.03-0.016l0.007-0.004c0.003,0,0.01,0,0.01,0    c0.005,0,0.009-0.005,0.012-0.005c0.011-0.006,0.02-0.01,0.033-0.02c0.009,0,0.019-0.005,0.029-0.01    C32.977,14.396,33.026,14.371,33.076,14.352z" data-part-id="logo__item--logo_0__40"></path>
		<path fill="#0E73B9" d="M33.392,14.208c0.008-0.005,0.018-0.01,0.031-0.015c-0.006,0.005-0.013,0.005-0.02,0.01    C33.403,14.203,33.396,14.203,33.392,14.208z" data-part-id="logo__item--logo_0__41"></path>
		<path fill="#0E73B9" d="M33.423,14.192c0.004,0,0.007-0.005,0.014-0.005l-0.002,0.005c-0.005,0-0.007,0-0.007,0    C33.425,14.192,33.425,14.192,33.423,14.192z" data-part-id="logo__item--logo_0__42"></path>
		<path fill="#0E73B9" d="M33.475,14.173c0.005-0.005,0.005-0.01,0.01-0.01v0.005c-0.012,0.005-0.027,0.015-0.039,0.02    C33.455,14.183,33.462,14.173,33.475,14.173z" data-part-id="logo__item--logo_0__43"></path>
		<rect x="33.498" y="14.157" fill="#0E73B9" width="0.002" height="0.005" data-part-id="logo__item--logo_0__44"></rect>
		<polygon fill="#0E73B9" points="33.507,14.158 33.514,14.158 33.507,14.158" data-part-id="logo__item--logo_0__45"></polygon>
		<path fill="#0E73B9" d="M33.544,14.143c0.012-0.005,0.021-0.01,0.037-0.014c-0.022,0.009-0.045,0.02-0.067,0.029    C33.522,14.148,33.534,14.148,33.544,14.143z" data-part-id="logo__item--logo_0__46"></path>
		<path fill="#0E73B9" d="M33.599,14.118c0,0,0.005-0.004,0.01-0.004c-0.01,0.004-0.018,0.01-0.027,0.015    C33.583,14.128,33.591,14.124,33.599,14.118z" data-part-id="logo__item--logo_0__47"></path>
		<path fill="#0E73B9" d="M33.638,14.099c0,0,0,0,0.005,0c-0.005,0.005-0.007,0.005-0.015,0.005    C33.63,14.104,33.635,14.104,33.638,14.099z" data-part-id="logo__item--logo_0__48"></path>
		<path fill="#0E73B9" d="M33.772,14.043c0,0,0.005-0.005,0.01-0.005c-0.002,0.005-0.002,0.005-0.002,0.005    c-0.01,0-0.022,0.01-0.034,0.01C33.754,14.054,33.762,14.049,33.772,14.043z" data-part-id="logo__item--logo_0__49"></path>
		<path fill="#0E73B9" d="M33.829,14.019h0.002c-0.014,0.006-0.032,0.015-0.047,0.02C33.799,14.034,33.812,14.029,33.829,14.019z" data-part-id="logo__item--logo_0__50"></path>
		<polygon fill="#0E73B9" points="33.849,14.014 33.856,14.009 33.851,14.014 33.847,14.014" data-part-id="logo__item--logo_0__51"></polygon>
		<path fill="#0E73B9" d="M33.866,14.004h0.005c-0.005,0-0.005,0-0.01,0H33.866z" data-part-id="logo__item--logo_0__52"></path>
		<polygon fill="#0E73B9" points="33.871,14 33.871,14 33.871,14.004" data-part-id="logo__item--logo_0__53"></polygon>
		<path fill="#0E73B9" d="M33.906,13.984c0.002,0,0.005,0,0.009,0c-0.014,0.005-0.024,0.01-0.034,0.015    C33.888,13.994,33.898,13.994,33.906,13.984z" data-part-id="logo__item--logo_0__54"></path>
		<polygon fill="#0E73B9" points="33.915,13.979 33.918,13.979 33.915,13.984" data-part-id="logo__item--logo_0__55"></polygon>
		<path fill="#0E73B9" d="M33.935,13.975c0.005,0,0.013-0.005,0.02-0.005c-0.007,0-0.015,0.005-0.024,0.01L33.935,13.975z" data-part-id="logo__item--logo_0__56"></path>
		<polygon fill="#0E73B9" points="34,13.95 34.007,13.95 34,13.95" data-part-id="logo__item--logo_0__57"></polygon>
		<polygon fill="#0E73B9" points="34.156,13.885 34.151,13.885 34.149,13.885" data-part-id="logo__item--logo_0__58"></polygon>
		<path fill="#FFFFFF" d="M34.262,13.835h0.002h0.006C34.265,13.835,34.265,13.835,34.262,13.835z M34.257,13.84v-0.005V13.84    L34.257,13.84z M34.248,13.846L34.248,13.846h-0.005H34.248z M34.243,13.846L34.243,13.846c-0.006,0-0.006,0-0.006,0    S34.237,13.846,34.243,13.846z M34.149,13.885c0.004,0,0.012-0.005,0.017-0.005c-0.01,0-0.014,0.005-0.019,0.005H34.149z     M34.047,13.93v-0.004c-0.002,0.004-0.008,0.004-0.011,0.009C34.039,13.93,34.045,13.93,34.047,13.93z M34,13.95h0.007    c0.002-0.005,0.007-0.01,0.013-0.01c-0.005,0-0.01,0.005-0.013,0.005C34.002,13.95,34.002,13.95,34,13.95z M34,13.95L34,13.95    c-0.005,0-0.005,0-0.01,0C33.995,13.95,33.995,13.95,34,13.95z M33.975,13.959c0,0,0.007-0.005,0.015-0.01l-0.017,0.01    C33.973,13.959,33.973,13.959,33.975,13.959z M33.955,13.969c0.007-0.005,0.013-0.005,0.018-0.01    c-0.013,0.005-0.024,0.01-0.038,0.015C33.94,13.975,33.948,13.969,33.955,13.969z M33.915,13.984c0,0,0,0,0-0.005l0,0V13.984z     M33.876,14h0.005C33.876,14,33.876,14,33.876,14L33.876,14z M33.871,14.004c0,0,0,0,0.005-0.005h-0.005V14.004z M33.861,14.004    L33.861,14.004h0.005H33.861z M33.849,14.014c0,0,0.004,0,0.007-0.004h-0.002C33.851,14.014,33.849,14.014,33.849,14.014z     M33.844,14.014L33.844,14.014h0.002c0,0,0,0,0.002,0h-0.002H33.844z M33.831,14.019c0,0,0,0,0.002,0    c0.005-0.005,0.005-0.005,0.011-0.005h-0.006C33.838,14.014,33.833,14.014,33.831,14.019z M33.782,14.039h0.002    c-0.005,0-0.007,0-0.012,0.005C33.772,14.043,33.777,14.039,33.782,14.039z M33.698,14.074c-0.02,0.01-0.04,0.02-0.06,0.025    c0,0,0,0,0.005,0c0.01-0.005,0.02-0.01,0.03-0.01c0.025-0.01,0.047-0.025,0.072-0.035c0.009,0,0.017-0.005,0.027-0.01    c-0.004,0-0.008,0-0.008,0C33.739,14.054,33.718,14.063,33.698,14.074z M33.544,14.143c0.012-0.005,0.021-0.01,0.037-0.014    c0.002,0,0.01-0.005,0.018-0.011c-0.015,0.006-0.03,0.011-0.04,0.015C33.554,14.138,33.549,14.138,33.544,14.143z M33.502,14.158    h0.005h-0.002H33.502z M33.484,14.163v0.005c0.005,0,0.007-0.005,0.015-0.005c-0.005,0-0.005,0-0.005,0    C33.489,14.163,33.489,14.163,33.484,14.163z M33.445,14.188c0.009-0.005,0.017-0.015,0.029-0.015c-0.008,0-0.015,0-0.022,0.005    C33.45,14.183,33.447,14.183,33.445,14.188z M33.437,14.192c0,0,0.002-0.005,0.008-0.005c-0.006,0-0.006,0-0.006,0L33.437,14.192z     M33.403,14.203c0.007-0.005,0.018-0.005,0.024-0.01c-0.002,0-0.002,0-0.002,0C33.417,14.198,33.41,14.198,33.403,14.203z     M33.38,14.212c0.007,0,0.015-0.005,0.022-0.01c0,0-0.007,0-0.011,0.005C33.388,14.208,33.385,14.208,33.38,14.212z     M33.195,14.292c-0.087,0.04-0.179,0.08-0.266,0.124c0.047-0.02,0.097-0.044,0.146-0.064c-0.045,0.02-0.085,0.039-0.126,0.059    c0.099-0.045,0.201-0.089,0.302-0.139c0.032-0.015,0.07-0.03,0.099-0.044c-0.049,0.02-0.099,0.039-0.148,0.064H33.195z     M32.9,14.426c0.009,0,0.019-0.005,0.029-0.01c-0.02,0.01-0.042,0.015-0.063,0.03C32.877,14.44,32.887,14.436,32.9,14.426z     M32.553,14.584c-0.05,0.025-0.097,0.05-0.146,0.07l0.007-0.005c-0.02,0.009-0.037,0.019-0.059,0.029    c0.009-0.004,0.014-0.01,0.022-0.01c0.009-0.005,0.017-0.01,0.027-0.01c-0.064,0.025-0.128,0.055-0.191,0.09    c-0.02,0.01-0.045,0.019-0.064,0.029c0.007-0.004,0.017-0.01,0.021-0.015c-0.01,0.005-0.019,0.011-0.032,0.015    c-0.018,0.01-0.037,0.016-0.06,0.03c0.02-0.01,0.04-0.02,0.06-0.025c-0.018,0.005-0.035,0.011-0.05,0.02    c-0.012,0.005-0.03,0.02-0.042,0.025c0.006,0,0.013-0.005,0.015-0.005c-0.002,0-0.005,0.005-0.012,0.005    c-0.028,0.015-0.053,0.025-0.077,0.034c-0.022,0.016-0.042,0.025-0.069,0.035c-0.022,0.015-0.05,0.03-0.072,0.04    c-0.005,0-0.011,0.005-0.015,0.01c-0.007,0.005-0.018,0.005-0.027,0.01c-0.045,0.024-0.097,0.049-0.149,0.079    c0.241-0.124,0.494-0.248,0.764-0.377c0.057-0.024,0.119-0.054,0.178-0.084c0.005-0.005,0.012-0.005,0.02-0.01    c0.035-0.014,0.066-0.034,0.099-0.044c0.035-0.015,0.07-0.035,0.106-0.049c-0.102,0.044-0.201,0.088-0.297,0.133    C32.523,14.599,32.538,14.594,32.553,14.584z M32.242,14.748c0.022-0.015,0.047-0.025,0.07-0.035    c-0.007,0.005-0.012,0.005-0.018,0.005C32.277,14.733,32.26,14.738,32.242,14.748z M32.007,14.847c-0.002-0.005-0.002,0-0.005,0    c0.002-0.005,0.007-0.005,0.012-0.01c-0.032,0.015-0.067,0.029-0.102,0.049c-0.146,0.07-0.291,0.144-0.434,0.218    c0.03-0.02,0.062-0.034,0.091-0.044c0.02-0.015,0.044-0.025,0.069-0.035c0.018-0.01,0.03-0.02,0.047-0.025    c0.047-0.024,0.097-0.044,0.146-0.069c0,0,0.002-0.005,0.004,0c0.03-0.02,0.057-0.035,0.087-0.045    c0.017-0.009,0.032-0.02,0.047-0.025c0.005,0,0.007,0,0.007,0C31.992,14.852,31.997,14.852,32.007,14.847z M28.872,16.582    c0.067-0.044,0.216-0.138,0.448-0.277c-0.052,0.025-0.102,0.054-0.156,0.084c-0.013,0.01-0.025,0.015-0.032,0.02    c-0.087,0.054-0.166,0.104-0.243,0.148c-0.318,0.198-0.457,0.293-0.466,0.302c0.007-0.004,0.015-0.004,0.02-0.009    c0.005,0,0.005,0,0.005,0c0.352-0.134,0.649-0.357,0.969-0.545c0.005,0,0.01-0.005,0.012-0.01c0.025-0.01,0.047-0.025,0.072-0.04    l0.327-0.193c0.583-0.327,1.049-0.584,1.44-0.798l0.407-0.228c0.156-0.079,0.317-0.163,0.49-0.253    c-0.305,0.149-0.485,0.248-0.49,0.253C30.741,15.546,29.809,16.066,28.872,16.582z M31.315,15.184    c0.055-0.029,0.109-0.054,0.164-0.079c-0.097,0.045-0.191,0.09-0.286,0.139C31.234,15.224,31.273,15.204,31.315,15.184z     M31.177,15.253c-0.05,0.02-0.097,0.049-0.146,0.074c-0.069,0.03-0.144,0.075-0.213,0.109c0.03-0.015,0.06-0.03,0.089-0.044    C30.991,15.343,31.085,15.298,31.177,15.253z M28.771,16.606c-0.016,0.005-0.025,0.015-0.04,0.02    c-0.136,0.074-0.282,0.153-0.436,0.238c-0.002,0-0.005,0-0.005,0.005c-0.008,0.004-0.013,0.004-0.02,0.009    c-0.067,0.04-0.128,0.085-0.188,0.119l-0.106,0.065c-0.05,0.025-0.097,0.054-0.144,0.094c0.027-0.02,0.063-0.04,0.09-0.055    c0.339-0.188,0.671-0.381,1.003-0.58C28.872,16.547,28.82,16.577,28.771,16.606z M33.871,14.004c0,0,0,0,0.005-0.005h-0.005    V14.004z M33.861,14.004h0.005l0,0H33.861z M33.849,14.014c0,0,0.004,0,0.007-0.004h-0.002    C33.851,14.014,33.849,14.014,33.849,14.014z M33.847,14.014c0,0,0,0,0.002,0H33.847L33.847,14.014z M33.831,14.019    c0,0,0,0,0.002,0c0.005-0.005,0.005-0.005,0.011-0.005h-0.006C33.838,14.014,33.833,14.014,33.831,14.019z M33.745,14.054    c0.012,0,0.024-0.01,0.034-0.01c-0.002-0.005-0.005,0-0.005,0C33.762,14.049,33.754,14.054,33.745,14.054z M33.628,14.104    c0.007,0,0.01,0,0.015-0.005c-0.005,0-0.005,0-0.005,0S33.63,14.104,33.628,14.104z M33.514,14.158    c0.022-0.009,0.045-0.02,0.067-0.029c-0.015,0.004-0.025,0.009-0.037,0.014C33.534,14.148,33.522,14.148,33.514,14.158z     M33.504,14.158h-0.002c0,0,0.007,0,0.012,0c-0.002,0-0.005,0-0.007,0H33.504z M33.484,14.163c-0.005,0-0.005,0.005-0.01,0.01    c0.005,0,0.007-0.005,0.007-0.005c0.007,0,0.009-0.005,0.018-0.005c-0.005,0-0.005,0-0.005,0    C33.489,14.163,33.489,14.163,33.484,14.163z M33.445,14.188c0.009-0.005,0.017-0.015,0.029-0.015c-0.008,0-0.015,0-0.022,0.005    C33.45,14.183,33.447,14.183,33.445,14.188z M33.437,14.192c0,0,0.002-0.005,0.008-0.005c-0.006,0-0.006,0-0.006,0L33.437,14.192z     M33.392,14.208c0.003-0.005,0.008-0.005,0.008-0.005c0.009-0.005,0.02-0.005,0.027-0.01c0,0,0.002,0,0.007,0l0.002-0.005    c-0.007,0-0.01,0.005-0.014,0.005C33.41,14.198,33.4,14.203,33.392,14.208z M32.949,14.411c0.099-0.045,0.201-0.089,0.302-0.139    c-0.06,0.025-0.119,0.055-0.176,0.08C33.031,14.371,32.991,14.391,32.949,14.411z M32.553,14.584    c-0.05,0.025-0.097,0.05-0.146,0.07l-0.002,0.004c-0.064,0.025-0.128,0.055-0.191,0.09c-0.02,0.01-0.045,0.019-0.064,0.029    c-0.006,0-0.006,0-0.01,0v0.005c-0.018,0.005-0.035,0.011-0.05,0.02c-0.012,0.005-0.03,0.02-0.042,0.025    c0.006,0,0.013-0.005,0.015-0.005c-0.002,0-0.005,0.005-0.012,0.005c-0.028,0.015-0.053,0.025-0.077,0.034    c-0.022,0.016-0.042,0.025-0.069,0.035c-0.022,0.015-0.05,0.03-0.072,0.04c0.012-0.005,0.027-0.015,0.039-0.025    c-0.01,0.005-0.022,0.01-0.032,0.02c-0.002-0.005-0.004,0-0.004,0c-0.05,0.025-0.1,0.045-0.146,0.069    c-0.018,0.005-0.03,0.015-0.047,0.025c-0.014,0.01-0.027,0.015-0.042,0.02c-0.007,0.005-0.019,0.01-0.027,0.015h-0.002    c-0.072,0.035-0.144,0.074-0.218,0.109c-0.018,0.01-0.033,0.019-0.053,0.03c-0.099,0.049-0.201,0.099-0.307,0.153    c-0.198,0.109-0.421,0.223-0.659,0.352c-0.022,0.009-0.04,0.02-0.065,0.035c-0.446,0.247-0.885,0.51-1.321,0.768    c0.067-0.035,0.126-0.069,0.186-0.099c0.01-0.01,0.02-0.015,0.032-0.02c0.072-0.044,0.146-0.089,0.228-0.134    c0.064-0.039,0.136-0.084,0.213-0.124c0.032-0.02,0.066-0.044,0.106-0.064c0.049-0.03,0.106-0.06,0.163-0.094    c0.058-0.029,0.114-0.064,0.173-0.094c0.04-0.025,0.08-0.045,0.122-0.07c0.082-0.049,0.171-0.099,0.261-0.148    c0.044-0.019,0.089-0.045,0.131-0.069c0.072-0.035,0.146-0.075,0.221-0.114c0.049-0.03,0.104-0.055,0.153-0.084    c0.034-0.015,0.069-0.035,0.104-0.055c0.069-0.035,0.133-0.069,0.196-0.104c0.186-0.089,0.37-0.188,0.553-0.277    c-0.045,0.024-0.097,0.049-0.149,0.079c0.241-0.124,0.494-0.248,0.764-0.377c0.057-0.024,0.119-0.054,0.178-0.084    c-0.004,0-0.013,0.005-0.018,0.005C32.56,14.584,32.558,14.584,32.553,14.584z M32.002,14.847c-0.005,0.005-0.015,0.005-0.02,0.01    c0.01-0.005,0.015-0.005,0.025-0.01C32.005,14.842,32.005,14.847,32.002,14.847z M31.962,14.866c0,0-0.005,0.006-0.009,0.006    h-0.002h-0.003c-0.005,0.009-0.014,0.009-0.021,0.014c0.017-0.009,0.032-0.02,0.047-0.025c0.005,0,0.007,0,0.007,0    C31.978,14.857,31.967,14.861,31.962,14.866z" data-part-id="logo__item--logo_0__59"></path>
		<path fill="#0E73B9" d="M37.675,12.8l-0.072,0.074c-0.015,0.006-0.03,0.01-0.044,0.015c-0.5,0.189-1.036,0.243-1.557,0.367    c-0.099,0.029-0.198,0.054-0.29,0.084c-0.042,0.01-0.08,0.02-0.117,0.029c-0.03,0.011-0.06,0.02-0.084,0.025    c-0.05,0.015-0.097,0.031-0.144,0.045c-0.015,0.005-0.027,0.01-0.042,0.015c-0.064,0.02-0.126,0.039-0.186,0.059    c-0.018,0.005-0.035,0.011-0.049,0.015c-0.187,0.064-0.34,0.124-0.441,0.159c-0.002,0-0.002,0-0.002,0    c0.002,0.004,0.005,0,0.007,0l0,0c0.146-0.05,0.297-0.095,0.446-0.134c0.007,0,0.018,0,0.024-0.005    c0.136-0.035,0.271-0.069,0.401-0.099c0.027-0.005,0.05-0.01,0.077-0.015c0.04-0.009,0.077-0.015,0.112-0.025    c0.364-0.069,0.609-0.089,0.701-0.074c0.01,0,0.022,0,0.03,0.005c-0.005,0.005-0.013,0.01-0.022,0.02    c-0.05,0.045-0.196,0.158-0.496,0.193c-0.095,0.01-0.196,0.01-0.314,0.005c-0.078-0.005-0.281-0.015-0.59,0.054    c-0.042,0.005-0.087,0.015-0.131,0.025c-0.011,0-0.015,0-0.022,0.005c-0.025,0.01-0.047,0.01-0.072,0.02c-0.004,0-0.007,0-0.007,0    s-0.008,0-0.011,0.005c-0.009,0-0.022,0.005-0.029,0.01c-0.018,0-0.032,0.005-0.045,0.01c-0.007,0-0.014,0-0.022,0.004    c0,0-0.002,0.006-0.005,0.006c-0.009,0-0.02,0.005-0.027,0.005c-0.015,0.005-0.027,0.009-0.042,0.014    c-0.022,0.005-0.044,0.011-0.064,0.02c-0.008,0-0.013,0.005-0.022,0.005c-0.007,0.006-0.018,0.006-0.027,0.01    c-0.015,0.01-0.029,0.01-0.047,0.015c-0.05,0.02-0.104,0.04-0.158,0.06c0.027-0.011,0.057-0.02,0.083-0.03    c0.002-0.005,0.005-0.005,0.007-0.01c0.022-0.005,0.042-0.01,0.06-0.02c0.019-0.005,0.039-0.015,0.057-0.025    c0.012-0.005,0.027-0.01,0.04-0.014h0.005c0.017-0.011,0.034-0.016,0.05-0.02c0.022-0.01,0.037-0.016,0.059-0.025    c0.022-0.01,0.047-0.02,0.072-0.03c0.035-0.01,0.064-0.025,0.094-0.035c0.047-0.014,0.089-0.029,0.134-0.049    c0.02-0.005,0.04-0.015,0.062-0.025c0.042-0.015,0.087-0.03,0.132-0.044c0.007,0,0.017-0.006,0.027-0.011    c0.092-0.034,0.183-0.063,0.275-0.094c0.045-0.014,0.086-0.029,0.129-0.044c0.013,0,0.027-0.01,0.042-0.01    c0.077-0.025,0.151-0.05,0.223-0.07c0.066-0.024,0.133-0.039,0.198-0.064c0,0,0.012-0.004,0.017-0.004    c0.05-0.016,0.099-0.025,0.146-0.045c0.02-0.005,0.04-0.01,0.058-0.015c0.336-0.095,0.629-0.169,0.867-0.223    C37.371,12.864,37.557,12.824,37.675,12.8z" data-part-id="logo__item--logo_0__60"></path>
		<path fill="#FFFFFF" d="M34.441,13.766c0.019-0.005,0.037-0.005,0.054-0.015c-0.015,0.01-0.029,0.01-0.047,0.015    c-0.022,0.01-0.047,0.02-0.075,0.03c0.002-0.005,0.005-0.005,0.007-0.01C34.404,13.781,34.424,13.776,34.441,13.766z" data-part-id="logo__item--logo_0__61"></path>
		<path fill="#FFFFFF" d="M34.523,13.741c0.022-0.005,0.042-0.014,0.064-0.02c-0.012,0.006-0.027,0.006-0.042,0.015    C34.538,13.736,34.533,13.741,34.523,13.741z" data-part-id="logo__item--logo_0__62"></path>
		<path fill="#FFFFFF" d="M34.667,13.697c0.005,0,0.014,0,0.014,0s0,0-0.002,0C34.672,13.697,34.669,13.697,34.667,13.697z" data-part-id="logo__item--logo_0__63"></path>
		<path fill="#FFFFFF" d="M34.818,13.617c-0.057,0.02-0.109,0.045-0.166,0.065c0.022-0.01,0.047-0.02,0.072-0.03    C34.758,13.642,34.788,13.627,34.818,13.617z" data-part-id="logo__item--logo_0__64"></path>
		<path fill="#FFFFFF" d="M35.101,13.553c-0.149,0.039-0.3,0.084-0.446,0.134l0,0c-0.005,0-0.005,0-0.005,0    c0.102-0.035,0.255-0.095,0.441-0.159c-0.07,0.025-0.144,0.05-0.213,0.079C34.954,13.588,35.028,13.573,35.101,13.553z" data-part-id="logo__item--logo_0__65"></path>
		<path fill="#FFFFFF" d="M35.145,13.499c-0.064,0.019-0.128,0.044-0.193,0.069c0.02-0.005,0.04-0.015,0.062-0.025    C35.056,13.528,35.101,13.513,35.145,13.499z" data-part-id="logo__item--logo_0__66"></path>
		<path fill="#FFFFFF" d="M35.125,13.548c0.136-0.035,0.271-0.069,0.401-0.099c0.065-0.015,0.131-0.03,0.189-0.04    c-0.035,0.01-0.072,0.016-0.112,0.025C35.452,13.469,35.294,13.508,35.125,13.548z" data-part-id="logo__item--logo_0__67"></path>
		<path fill="#FFFFFF" d="M35.842,13.27c-0.03,0.006-0.055,0.011-0.085,0.02c0.072-0.02,0.142-0.039,0.207-0.059    C35.921,13.241,35.883,13.251,35.842,13.27z" data-part-id="logo__item--logo_0__68"></path>
		<path fill="#FFFFFF" d="M36.261,13.142c0.215-0.059,0.411-0.114,0.584-0.158C36.649,13.028,36.451,13.083,36.261,13.142z" data-part-id="logo__item--logo_0__69"></path>
		<path fill="#FFFFFF" d="M36.665,13.32c0,0.005,0,0.015-0.005,0.02c-0.055,0.045-0.182,0.104-0.702,0.263l-0.054,0.014    l-0.079-0.014c-0.012-0.005-0.03-0.005-0.045-0.005c-0.146-0.025-0.305-0.03-0.471-0.02c-0.022,0.005-0.047,0.005-0.074,0.01    c-0.025,0-0.049,0-0.079,0.01c-0.045,0-0.092,0.009-0.138,0.014c-0.038,0.01-0.08,0.015-0.119,0.025    c-0.035,0.01-0.075,0.02-0.11,0.025c0,0,0.006,0,0.01,0c0.025-0.01,0.047-0.01,0.072-0.02c0.007-0.005,0.012-0.005,0.017-0.005    h0.006c0.044-0.01,0.089-0.02,0.131-0.025c0.367-0.069,0.629-0.054,0.843-0.039c0,0,0.022-0.01,0.062-0.02    c0.128-0.04,0.419-0.134,0.496-0.193c0.01-0.01,0.018-0.015,0.022-0.02c-0.007-0.005-0.02-0.005-0.03-0.005    c-0.097-0.015-0.317,0.005-0.595,0.054C36.248,13.301,36.558,13.256,36.665,13.32z" data-part-id="logo__item--logo_0__70"></path>
		<path fill="#FFFFFF" d="M38.03,12.72c-0.045,0.035-0.109,0.089-0.162,0.119c-0.252,0.099-0.468,0.153-0.994,0.248    c-0.327,0.06-0.724,0.134-1.162,0.253c0.091-0.03,0.19-0.055,0.29-0.084c0.521-0.124,1.056-0.178,1.557-0.367    c0.015-0.005,0.03-0.009,0.044-0.015l0.072-0.074c-0.118,0.024-0.305,0.064-0.548,0.119c-0.084,0.02-0.181,0.04-0.282,0.065    C37.237,12.879,37.636,12.794,38.03,12.72z" data-part-id="logo__item--logo_0__71"></path>
		<path fill="#0E73B9" d="M59.055,16.75c1.136,0.784,0.823,1.061,0.357,1.155c-0.585,0.119-1.185-0.174-1.77,0.049    c-0.164,0.065-0.313,0.229-0.069,0.655c0.193,0.352,0.401,0.719,4.486,4.03c-0.58,0.372-1.349,0.868-1.924,1.234    c-0.188,0.114-0.347,0.208-0.645,0.307c-1.298,0.437-1.834-0.967-1.934-1.254c-0.564-1.745-2.358-1.854-3.841-1.373    c-0.957,0.312-1.333,1.16,0.104,2.295c1.943,1.532,0.357,2.052-1.666,2.712c0,0-0.703,0.233-1.745,0.496    c-0.693-0.768-4.022-4.585-1.809-4.65c0.226-0.005,2.146-0.119,0.788-2.038c-0.609-0.868-2.082-1.829-3.14-1.294    c-1.274,0.645-1.274,0.645-1.635,0.457c-1.051-0.556-1.492-1.661-2.233-2.494c0.359-0.188,0.835-0.451,1.192-0.645    c1.2-0.451,1.827-0.441,2.164,0.03c0.57,0.793,1.12,1.323,2.992,0.972c1.9-0.357,2.159-0.982,0.691-1.666    c-1.755-0.823-1.98-0.927-0.962-1.293c1.14-0.406,1.14-0.406,2.414,0.288c2.543,1.393,3.594,1.968,4.595,1.641    c0.006,0,0.011-0.006,0.011-0.006l0.099-0.113C56.021,15.641,57.296,15.541,59.055,16.75L59.055,16.75z" data-part-id="logo__item--logo_0__72"></path>
		<path fill="#0E73B9" d="M68.791,72.283c0.015,0.16,0.059,0.59-0.07,3.426c-3.776,0.689-5.71,2.156-4.49,3.421    c1.526,1.58,0.05,2.31-0.654,2.548c-1.606,0.479-1.79-1.229-1.795-1.988c-0.867-2.398-5.135,0.822-5.313,0.962    c-0.694-0.888-1.189-1.637-1.482-2.216c-0.649-1.303-0.034-1.438,1.641-1.794c1.299-0.278,1.655-1.126,1.042-2.519    c-1.111-2.539-2.365-3.337-3.719-2.374c-1.557,1.101-2.136,1.507-3.887-3.872c1.934-1.011,3.763-1.834,4.104-1.987    c1.473-0.556,1.795,0.688,1.859,1.482c0.025,0.281,0.303,2.687,3.396,1.537c0.055-0.026,0.119-0.05,0.174-0.075    c1.918-0.853,2.518-2.439,1.368-3.604c-0.456-0.467-0.848-1.384,1.7-2.305c1.744-0.705,2.806-1.066,3.431-1.176    c0.144,0.361,0.574,1.474,0.941,2.914c0.316,1.244,0.803,3.129-1.507,3.232c-0.596,0.025-2.082,0.645-1.666,2.395    c0.466,2.018,1.74,3.213,3.054,1.726c0.021-0.02,1.468-1.61,1.795-0.175C68.741,71.972,68.771,72.15,68.791,72.283L68.791,72.283z" data-part-id="logo__item--logo_0__73"></path>
		<path fill="#FFFFFF" d="M34.243,13.846L34.243,13.846L34.243,13.846L34.243,13.846L34.243,13.846z M34.21,13.86l0.015-0.005    l0.01-0.005c-0.005,0-0.007,0.005-0.015,0.005C34.221,13.855,34.215,13.855,34.21,13.86z M34.156,13.885l0.032-0.01V13.87    c-0.01,0.005-0.017,0.005-0.022,0.01C34.166,13.88,34.161,13.88,34.156,13.885z M34.126,13.895c-0.002,0-0.007,0-0.007,0    l0.03-0.009h-0.002C34.138,13.89,34.134,13.89,34.126,13.895z M34.109,13.9c0,0-0.002,0-0.007,0.005    c-0.002,0-0.005,0.005-0.007,0.005l0,0l0.022-0.01c0,0,0,0-0.005,0H34.109z M34.07,13.919c-0.008,0-0.013,0.006-0.018,0.006    c-0.004,0-0.004,0.004-0.004,0.004c-0.002,0-0.008,0-0.011,0.005c-0.007,0-0.012,0.005-0.017,0.005    c-0.005,0-0.01,0.005-0.013,0.01H34c-0.01,0-0.018,0.005-0.025,0.01c-0.007,0.005-0.013,0.005-0.02,0.01    c-0.024,0.01-0.054,0.02-0.079,0.03c-0.005,0.005-0.01,0.005-0.015,0.014l0.169-0.074l0.062-0.029    c-0.005,0.004-0.01,0.004-0.018,0.004L34.07,13.919z M33.849,14.014h0.012c-0.005,0-0.007,0-0.01,0H33.849z M33.833,14.024    l0.011-0.006c0,0,0.002-0.005,0.005-0.005c-0.005,0-0.011,0.005-0.016,0.005V14.024z M33.779,14.043    c-0.062,0.03-0.124,0.055-0.187,0.085l0.241-0.104c-0.017,0.005-0.034,0.014-0.052,0.014    C33.779,14.043,33.779,14.043,33.779,14.043z" data-part-id="logo__item--logo_0__74"></path>
		<g>
			<path fill="#0E73B9" d="M26.703,40.455c0.104-0.545,0.417-2.21-0.848-1.59c-0.069,0.029-0.158,0.079-0.226,0.113     c-0.047,0.025-0.064,0.03-0.082,0.04c-0.018,0.01-0.03,0.015-0.047,0.019c-0.015,0.006-0.033,0.015-0.045,0.02     c-0.015,0.005-0.032,0.011-0.045,0.015c-0.012,0.01-0.027,0.01-0.042,0.02c-0.012,0.005-0.024,0.01-0.037,0.015     c-0.018,0.005-0.027,0.01-0.04,0.015c-0.014,0.005-0.027,0.014-0.042,0.014c-0.689,0.328-1.73,0.813-3.088,2.117     c0.672,3.892,1.11,6.46-0.888,6.237c-1.658-0.184-1.44,1.333-1.014,3.188c0.912,3.94,2.045,2.373,2.474,1.785     c1.261-1.745,2.171,1.506,3.321,5.624c1.331-0.252,2.005-0.51,2.496-0.698c0.102-0.039,0.203-0.084,0.305-0.123     c3.448-1.205,1.837-2.524,1.309-2.959c-0.929-0.765-2.729-2.771,0.669-4.958c0.064-0.03,0.134-0.055,0.201-0.084     c3.733-1.438,4.328,0.759,4.094,2.279c-0.493,3.184,2.198,2.989,6.127-0.441c-0.029,0.012-0.072,0.021-0.102,0.026l-0.047-0.273     c-1.587-8.451-3.091-6.365-3.733-5.473c-2.005,2.771-3.934,1.21-4.5-0.931c-0.801-3.024,0.158-4.918,2.28-4.492     c0.277,0.055,2.68,0.461,1.948-2.265c-0.429-1.587-1.199-2.781-1.655-3.496c-0.022,0.011-0.052,0.02-0.072,0.035     c-3.948,1.794-5.929,2.702-4.795,4.213c1.065,1.423,1.331,3.361-1.118,4.536C26.002,44.643,26.622,40.891,26.703,40.455z" data-part-id="logo__item--logo_0__75"></path>
			<path fill="#0E73B9" d="M25.315,23.046c-0.005,0.02-0.895,1.878-1.346,3.004c1.051-0.045,3.408-0.897,3.009-2.766     c-0.176-0.828,0.593-2.171,2.184-2.984c1.502-0.476,0.922,1.027,0.446,1.968c-0.196,0.377-0.543,1.22,0.376,0.893     c0.337-0.119,1.966-1.081,2.843-1.774l0.012,0.044l0.002-0.004c0.04-0.466,0.04-0.848,0.035-0.958     c-0.03-2.27-0.652-1.878-0.856-1.745C32,18.733,32,18.733,32,18.733l-0.018,0.025c-0.602,0.788-1.312,1.164-1.402,0.471     c-0.11-0.824,0.892-2.846,1.618-2.549c0.243,0.099,0.424-0.168,0.493-0.287c0.286-0.5,0.337-1.091,0.585-1.606h-0.002     c-0.233,0.05-0.31,0.074-0.437,0.124c-0.012,0.005-0.025,0.01-0.035,0.015c-0.049,0.02-0.112,0.045-0.159,0.064     c-0.991,0.521-1.253,1.745-2.212,2.296c-0.015,0.005-0.03,0.01-0.042,0.014c-0.255,0.099-0.335,0.109-0.461,0.09     c-0.019-0.03-0.046-0.075-0.064-0.104c0.285-0.854,1.123-1.185,1.678-1.78c-0.228-0.084-1.467,0.649-3.306,2.732     c-0.947,1.076-1.167,1.175-1.359,1.184c-0.02-0.02-0.042-0.044-0.062-0.064c-0.563,0.143-2.328,2.528-2.199,2.969     c0.521-0.025,0.615-0.987,1.197-0.694C25.838,21.742,25.875,21.906,25.315,23.046z" data-part-id="logo__item--logo_0__76"></path>
			<path fill="#0E73B9" d="M65.391,89.781v0.007c-0.03,0.005-0.05,0.015-0.074,0.019c-0.006,0.005-0.006,0.005-0.006,0.005     C65.335,89.803,65.36,89.793,65.391,89.781z" data-part-id="logo__item--logo_0__77"></path>
			<path fill="#0E73B9" d="M64.469,78.866c1.745,1.844-0.061,2.731-0.645,3.024c-0.056,0.019-0.104,0.04-0.159,0.063     c-1.278,0.458-2.241-0.489-2.221-2.2c-0.456-0.961-1.447-0.634-2.598-0.14c-1.091,0.501-1.606,0.878-2.211,1.354     c0.348,1.259,0.873,2.008,1.215,2.504c0.64,0.916,1.186,1.551,1.958,0.668c0.754-0.853,1.819-0.991,2.389-0.302     c0.357,0.437,2.013,2.627-1.109,2.602c-0.6-0.01-0.277,0.576,0.089,1.066c0.229,0.293,0.853,0.848,1.373,1.264     c0.005,0,0.015-0.005,0.02-0.005c0.511-0.113,0.788-0.229,1.012-0.321c0.476-0.205,1.492-0.739,0.609-1.344     c-1.09-0.748-0.411-1.81,0.516-2.181c0.179-0.07,1.725-0.631,1.349,1.551c-0.169,1.006,0.764,0.551,1.755,0.06     c0.688-2.409,0.733-5.958,0.198-10.311C65.004,76.923,63.615,77.964,64.469,78.866z" data-part-id="logo__item--logo_0__78"></path>
			<path fill="#0E73B9" d="M43.314,91.21c-0.015,0.021-0.03,0.054-0.045,0.075c0.456,0.406,3.73,0.926,4.595,0.808     c0-0.021-0.002-0.05-0.004-0.075c-0.02-0.01-0.05-0.034-0.072-0.045c0.106-0.113,0.36-0.109,1.929,0.035     c4.451,0.392,5.285,0.085,5.641-0.045c0.01-0.005,0.02-0.01,0.029-0.015c0.079-0.019,0.148-0.049,0.229-0.085     c0-0.023,0.005-0.054,0.01-0.078c-0.148-0.054-0.322-0.089-1.269-0.08c-0.967,0.01-2.648-0.03-3.055-0.377     c0.14-0.471,0.853-0.381,4.273,0.021c1.299,0.064,2.013-0.13,2.111-0.58l0,0l-0.074-0.01c-1.472-0.263-2.83-1.001-4.352-1.061     c-0.392-0.016-0.352,0.178-0.333,0.268c0.14,0.748-1.794,0.347-1.813,0.347c-2.042-0.446-3.462-1.126-3.703-1.764     c0.109-0.11,0.295-0.21,0.446-0.248c0.587-0.085,1.202,0.133,1.77-0.154c0.069-0.035,0.237-0.174-0.317-0.585     c-0.146-0.104-0.293-0.198-0.438-0.298c-2.984-1.978-2.984-1.978-4.913-1.249c-0.073,0.035-0.143,0.06-0.215,0.09     c-0.139,0.038-0.275,0.088-0.41,0.145c-0.699,0.321-1.115,0.848,0.011,1.268c2.547,0.957,3.712,1.394,2.55,1.963     c-0.005,0.005-0.012,0.011-0.012,0.011c-0.791,0.232-2.474-0.061-4.311-1.251c-2.556-1.149-2.952,0.689-2.95,0.716     c1.904,0.783,3.239,1.229,4.023,1.471c1.11,0.338,1.279,0.507,1.355,0.581c-0.007,0.025-0.017,0.063-0.022,0.089     C43.766,91.19,43.532,91.155,43.314,91.21z" data-part-id="logo__item--logo_0__79"></path>
			<path fill="#0E73B9" d="M50.821,43.345c-0.392-1.245-1.214-1.536-2.595-0.937c-1.383,0.669-3.403,2.038-1.402,3.698     c3.244,2.682-0.308,3.619-5.223,4.908l0.065,0.104c1.95,3.374,3.968,6.859,0.037,7.008c-0.932,0.035-2.815,0.517-0.129,4.215     c1.819,2.498,2.667,1.438,3.485,0.41l0,0c1.671-2.632,3.728,2.366,4.717,4.765c4.183-2.24,6.488-3.479,6.722-0.259     c0.118,1.761,1.615,1.839,2.953,1.171c2.728-1.334,1.255-2.801,1.24-2.816c-0.71-0.749-1.031-1.873,1.462-2.979     c0.124-0.049,0.242-0.099,0.366-0.148c1.2-0.491,1.924-0.739,2.266-0.857c-0.332-1.131-0.684-2.271-1.065-3.436     c-1.105-3.391-2.395-6.91-3.867-10.494c-0.46-1.125-0.927-2.226-1.402-3.312c-0.069-0.164-0.138-0.327-0.213-0.496     c-0.015-0.04-0.035-0.084-0.055-0.124C53.335,46.532,51.57,47.161,50.821,43.345z" data-part-id="logo__item--logo_0__80"></path>
			<path fill="#0E73B9" d="M21.027,72.854c-0.089-0.03-0.228,0.01-0.312,0.05c0.007,0.926,1.316,2.835,3.891,5.681     c2.404-1.953,2.62-1.811,4.707,0.732c1.765,1.914,3.244,0.557,3.234-0.143c-0.005-0.531-0.469-0.947-0.939-1.329h-0.002     c-3.44-2.146,2.676-3.599,2.741-3.619c0.059-0.01,0.141-0.024,0.201-0.033c-1.805-2.048-5.557-6.307-1.546-6.533     c0.012,0,1.593-0.11,0.951-1.78c-0.241-0.621-2.272-4.396-3.666-1.979c-2.042,3.539-3.636-2.236-4.491-5.329     c-1.195-0.01-2.045,0.229-2.355,0.328c-0.131,0.045-0.302,0.108-0.431,0.158c-1.224,0.486-2.191,0.872-0.665,2.751     c0.02,0.03,2.139,2.672,0.739,3.945c-2.188,1.993-3.752-0.664-3.913-3.445c-0.09-1.525-2.078-0.876-2.099-0.871     c-0.581,0.258-1.156,0.52-1.73,0.788c0.424,2.036,2.288,7.639,3.212,6.231c2.365-3.601,4.437,3.532,4.452,3.622     C23.092,72.729,22.819,73.39,21.027,72.854z" data-part-id="logo__item--logo_0__81"></path>
			<path fill="#0E73B9" d="M52.344,92.806c-0.338,0.01-0.665,0.021-0.972,0.03C51.748,92.836,52.046,92.826,52.344,92.806z" data-part-id="logo__item--logo_0__82"></path>
			<path fill="#0E73B9" d="M51.372,92.836c-0.922,0.005-2.327-0.04-5.48-0.134C47.637,92.914,49.094,92.9,51.372,92.836z" data-part-id="logo__item--logo_0__83"></path>
			<path fill="#0E73B9" d="M65.301,89.763c-0.685-0.338-0.685-0.338-0.817-0.114c-0.04,0.083-0.313,0.446-1.898-0.769     c-1.062,0.585-2.063,1.135-3.282,0.153c-0.074-0.06-0.743-0.56-1.605-0.188c-0.784,0.381-0.48,0.629-0.09,0.772     c0.565,0.203,1.17,0.203,1.74,0.406c0.104,0.04,0.412,0.153,0.164,0.293c-0.135,0.07-0.135,0.07-1.627,0.437     c1.22,0.108,2.439-0.04,3.658,0.05c-0.119,0.148-0.307,0.089-0.455,0.148c0.188,0.035,1.973-0.263,3.881-1.001     c-0.084,0.035-0.163,0.063-0.242,0.094c0.108-0.044,0.228-0.094,0.347-0.134c-0.14,0.05-0.308,0.108-0.446,0.139     c0.219-0.108,0.461-0.158,0.689-0.243c0.005,0,0.019-0.004,0.029-0.009C65.331,89.788,65.311,89.767,65.301,89.763z" data-part-id="logo__item--logo_0__84"></path>
			<path fill="#0E73B9" d="M65.162,89.876c-0.298,0.125-0.6,0.238-0.902,0.347c-0.322,0.115-0.645,0.229-0.972,0.333     c-0.937,0.302-1.199,0.366-2.895,0.778c0.134,0,0.263-0.035,0.396-0.056c-1.894,0.651-5.919,0.903-5.958,0.903     c-0.327,0.401-2.712,0.411-3.729,0.391c-1.526-0.02-1.725-0.02-1.948,0.045c0.124,0.094,0.124,0.094,5.275-0.055     c-0.005,0-0.016,0-0.016,0.005c1.537-0.208,3.192-0.47,4.531-0.723c4.193-1.15,4.272-1.171,6.364-2.028c0,0,0,0,0.011-0.005     c0.01-0.005,0.024-0.009,0.039-0.014c0,0,0.006-0.005,0.011-0.005l-0.09,0.038c0.01-0.005,0.02-0.015,0.029-0.015L65.162,89.876z" data-part-id="logo__item--logo_0__85"></path>
			<path fill="#0E73B9" d="M52.512,92.801c0.045-0.005,0.089-0.01,0.139-0.015c-0.104,0.005-0.208,0.015-0.307,0.02     C52.402,92.801,52.452,92.801,52.512,92.801z" data-part-id="logo__item--logo_0__86"></path>
			<path fill="#0E73B9" d="M53.33,92.732l0.248-0.025c0.639-0.085,0.763-0.114,0.837-0.14c-0.619,0.085-1.22,0.153-1.765,0.219     C52.854,92.771,53.072,92.751,53.33,92.732z" data-part-id="logo__item--logo_0__87"></path>
			<polygon fill="#0E73B9" points="65.4,89.781 65.391,89.781 65.405,89.776" data-part-id="logo__item--logo_0__88"></polygon>
			<path fill="#0E73B9" d="M46.313,68.843c-0.208,0.09-0.412,0.185-0.612,0.283c-1.514,0.754-2.711,1.349-0.726,2.643     c0.322,0.208,3.088,2.122,0.159,3.822c-3.148,1.823-4.261-1.239-4.405-2.46c-0.191-1.65-3.358,0.055-5.673,1.299     c4.353,4.854,4.353,4.854,1.849,5.661c-1.38,0.725,1.651,2.618,2.39,2.846c1.163,0.361,1.453-1.467,2.635-1.056     c0.27,0.095,0.27,0.095,3.715,3.251c1.851-1.104,3.494-1.858,4.846,0.135c0.307,0.451,1.015,1.131,2.275,0.536     c1.17-0.512,2.474-1.306,0.332-2.252c-0.01,0-0.021-0.005-0.024-0.01c-1.254-0.609-0.729-1.472,1.309-2.156     c0.54-0.179,1.273-0.382,1.819-0.545c-1.349-1.681-3.381-4.224,0.01-4.517c0.525-0.043,1.695-0.298,1.234-1.641     c-0.362-1.056-1.71-4.343-3.772-2.136c-1.858,1.993-3.371-2.493-4.104-4.646C49.099,67.972,47.84,68.198,46.313,68.843z" data-part-id="logo__item--logo_0__89"></path>
			<path fill="#0E73B9" d="M65.281,89.831c-0.069,0.025-0.139,0.05-0.208,0.08c0.063-0.024,0.124-0.05,0.169-0.064L65.281,89.831z" data-part-id="logo__item--logo_0__90"></path>
			<path fill="#0E73B9" d="M41.327,92.013h0.004c0.1,0.021,0.233,0.045,0.332,0.065c-1.477-0.378-2.473-0.625-3.271-0.848     c0.521,0.163,1.021,0.316,1.487,0.451L41.327,92.013z" data-part-id="logo__item--logo_0__91"></path>
			<path fill="#0E73B9" d="M15.037,61.77l-1.19,0.198c-0.055,0.025-0.102,0.045-0.154,0.065c-0.288,0.138-0.89,0.426-0.89,1.224     c0,0.377,0.137,0.868,0.508,1.518l0,0c0.35,0.629,0.738,1.332,0.88,1.963c0.148,0.635,0.042,1.194-0.607,1.532     c-0.018,0.009-0.038,0.019-0.055,0.023c-0.406,0.045-0.826-0.614-1.247-1.967c-0.108-0.348-0.257-0.834-0.431-1.314     c-0.181-0.506-0.384-1.002-0.58-1.304c-0.325-0.506-0.61-0.352-0.724,0.059c-0.002,0.012-0.002,0.021-0.008,0.031v0.059     c0.084,0.258,0.176,0.506,0.281,0.749c0.007,0.03,0.014,0.049,0.027,0.079c0.731,1.79,1.799,3.445,2.221,5.354     c0.027,0.12,0.052,0.243,0.072,0.368c-0.102-0.18-0.191-0.358-0.278-0.541l-0.005-0.005l-1.092-2.455     c-0.511-1.242-0.957-2.503-1.336-3.767c-2.236-7.416-2.256-15.079-0.365-22.281c0.033-0.139,0.072-0.278,0.115-0.412     c0.024-0.094,0.052-0.183,0.082-0.272c-0.3,2.126-0.967,4.184-1.247,6.316l-0.032,0.262c0.07,0.119,0.268,0.178,0.394,0.238     c0.171-0.144,0.49-0.421,0.677-3.054c0.133-1.859,0.719-2.895,1.202-2.935c0.111,0.258,0.156,0.511,0.161,0.754l0,0     c0.003,0.411-0.116,0.798-0.247,1.195c0,0.005,0,0.005,0,0.005c-0.129,0.391-0.268,0.783-0.305,1.18     c-0.181,1.785,0.365,1.472,2.098,0.054c-0.234,1.869-0.471,4.348-0.281,5.533c0.243,1.481,0.709,0.872,1.354,0.034     c0.993-1.293,1.428,2.965,1.43,3.01c0.122,1.615-0.6,1.521-0.746,1.48C12.452,54.195,14.185,59.475,15.037,61.77z" data-part-id="logo__item--logo_0__92"></path>
			<path fill="#0E73B9" d="M13.121,44.271c0.032,0.01,3.406,0.57,2.632-2.35c-0.521-1.958,0.465-4.144,1.953-4.333     c1.631-0.208,1.364,1.72,0.992,2.766c-0.042,0.114-0.952,2.736,0.612,2.33c0.132-0.035,0.263-0.069,0.389-0.119     c0.962-0.342,1.839-1.086,2.261-1.442l0,0l-0.229-2.454c0.015-3.852,0.858-3.856,1.671-3.861c0.659-0.005,1.407-0.01,1.705-3.891     c0.065-0.809,0.144-1.814-0.964-0.913c-0.592,0.486-1.585,1.299-1.416-0.243c0.031-0.262,0.184-1.283,0.96-3.331     c-0.682,0-2.759-0.01-3.101,2.246c-0.377,2.493-1.229,3.078-2.052,3.638c0,0-0.004,0-0.007,0l-0.005,0.005     c-0.798,0.095-0.474-1.447,0.765-3.673c0.387-0.858,0.32-0.996,0.253-1.126c-0.25-0.034-0.256-0.029-0.543,0.09     c-0.491,0.252-1.039,0.724-1.125,0.857c-1.624,2.607-2.501,5.017-2.452,5.383c0.029,0.011,0.072,0.02,0.102,0.025     c0.538-0.341,0.773-1.621,1.53-1.135c0.225,0.144-0.085,1.477-0.199,1.982c-0.867,3.758-1.71,3.361-2.389,3.044     c-0.159,0.168-0.977,1.259-1.348,6.503H13.121z" data-part-id="logo__item--logo_0__93"></path>
			<path fill="#0E73B9" d="M28.292,16.87c-0.069,0.039-0.142,0.084-0.211,0.128c0.06-0.034,0.122-0.079,0.188-0.119     c0.007-0.005,0.012-0.005,0.02-0.009H28.292z" data-part-id="logo__item--logo_0__94"></path>
			<path fill="#0E73B9" d="M28.592,16.686c-0.013,0.01-0.024,0.015-0.035,0.02c0.045-0.025,0.09-0.054,0.134-0.079     C28.656,16.646,28.624,16.661,28.592,16.686z" data-part-id="logo__item--logo_0__95"></path>
			<path fill="#0E73B9" d="M28.294,16.865c0,0,0,0-0.002,0.005c0.007-0.005,0.02-0.015,0.027-0.02     C28.312,16.854,28.302,16.859,28.294,16.865z" data-part-id="logo__item--logo_0__96"></path>
			<path fill="#0E73B9" d="M28.557,16.706c-0.079,0.049-0.158,0.099-0.237,0.144c0.025-0.015,0.049-0.03,0.077-0.045     c0.037-0.025,0.079-0.05,0.119-0.074C28.53,16.721,28.542,16.716,28.557,16.706z" data-part-id="logo__item--logo_0__97"></path>
			<path fill="#0E73B9" d="M29.355,16.234c-0.091,0.055-0.179,0.105-0.262,0.154c0.113-0.069,0.23-0.134,0.344-0.198     C29.41,16.2,29.382,16.22,29.355,16.234z" data-part-id="logo__item--logo_0__98"></path>
			<path fill="#0E73B9" d="M31.177,15.253c-0.092,0.045-0.187,0.089-0.271,0.139c0.04-0.025,0.084-0.045,0.124-0.065     C31.081,15.303,31.127,15.273,31.177,15.253z" data-part-id="logo__item--logo_0__99"></path>
			<path fill="#0E73B9" d="M31.982,14.857c0.005-0.005,0.015-0.005,0.02-0.01c-0.02,0.005-0.035,0.014-0.052,0.025h0.002     c0,0-0.002,0-0.006,0h0.003c-0.013,0.005-0.025,0.009-0.038,0.014c-0.077,0.04-0.154,0.075-0.226,0.114     c-0.03,0.015-0.062,0.035-0.09,0.045c-0.012,0.005-0.019,0.01-0.029,0.015c-0.072,0.035-0.144,0.074-0.218,0.109     c-0.01,0.005-0.025,0.01-0.035,0.014c-0.007,0.011-0.009,0.011-0.018,0.016c-0.099,0.049-0.201,0.099-0.307,0.153     c-0.198,0.109-0.421,0.223-0.659,0.352c-0.022,0.009-0.04,0.02-0.065,0.035c-0.064,0.029-0.124,0.064-0.188,0.104     c-0.441,0.242-0.875,0.5-1.309,0.763c-0.016,0.005-0.025,0.015-0.04,0.02c-0.265,0.164-0.54,0.322-0.81,0.476     c0.014-0.009,0.039-0.029,0.054-0.039c-0.05,0.025-0.097,0.054-0.144,0.094c-7.143,4.496-12.556,11-15.769,18.445l-0.009,0.02     c-0.039,0.089-0.095,0.213-0.134,0.303c0.072-0.124,0.136-0.253,0.206-0.382c0.005-0.015,0.012-0.025,0.018-0.04     c0.756-1.448,1.42-2.935,2.206-4.362c0-0.011,0.002-0.011,0.007-0.015c0.159-0.293,0.322-0.575,0.498-0.863l0.033-0.044     c0.188-0.238,0.206-0.258,0.389-0.432c0.256,1.725-1.623,2.429-1.881,3.916c0.312-0.104,0.575-0.248,0.803-0.421     c1.279-0.952,1.438-2.846,2.392-4.075c0.33-0.426,0.753-0.769,1.358-0.967c1.256-2.266,2.773-4.333,3.601-4.913     c0.034,0.035,0.079,0.084,0.112,0.124c0.262-0.084,0.285-0.094,1.117-1.086c0.835-1.001,1.78-1.903,2.615-2.904     c-0.171,0.089-0.171,0.089-0.636,0.436c0.48-0.792,3.194-2.612,4.662-3.594c-0.322,0.184-0.642,0.362-0.969,0.545     c0.114-0.084,0.265-0.183,0.441-0.293c0.077-0.044,0.156-0.094,0.243-0.148c0.007-0.005,0.02-0.01,0.032-0.02     c0.072-0.044,0.146-0.089,0.228-0.134c0.067-0.039,0.138-0.084,0.213-0.124c0.032-0.02,0.066-0.044,0.106-0.064     c0.052-0.03,0.106-0.06,0.163-0.094c0.058-0.029,0.114-0.064,0.173-0.094c0.018-0.015,0.033-0.02,0.052-0.03     c0.02-0.01,0.044-0.024,0.069-0.04c0.018-0.009,0.038-0.02,0.054-0.029c0.063-0.035,0.122-0.07,0.184-0.099     c0.052-0.03,0.102-0.059,0.154-0.089c0.072-0.035,0.146-0.075,0.221-0.114c0.049-0.03,0.104-0.055,0.153-0.084     c0.032-0.015,0.064-0.035,0.097-0.05c0.002-0.005,0.007-0.005,0.007-0.005c0.067-0.035,0.131-0.069,0.196-0.104     c0.186-0.089,0.37-0.188,0.553-0.277c0.01-0.005,0.02-0.01,0.027-0.01c0.004-0.005,0.01-0.01,0.015-0.01     c0.012-0.005,0.027-0.015,0.039-0.025c0.013-0.005,0.022-0.01,0.033-0.015c0.027-0.01,0.047-0.02,0.069-0.035     c0,0-0.005,0.005-0.01,0.005C31.967,14.861,31.978,14.857,31.982,14.857z M31.891,14.901c-0.015,0.01-0.037,0.02-0.052,0.03     c0.03-0.02,0.057-0.035,0.087-0.045C31.916,14.891,31.903,14.896,31.891,14.901z" data-part-id="logo__item--logo_0__100"></path>
			<path fill="#0E73B9" d="M31.982,14.857c0.01-0.005,0.015-0.005,0.025-0.01l-0.035,0.014     C31.978,14.861,31.98,14.861,31.982,14.857z" data-part-id="logo__item--logo_0__101"></path>
			<path fill="#0E73B9" d="M32.015,14.837c0.024-0.01,0.047-0.025,0.074-0.035c-0.012,0.005-0.03,0.02-0.042,0.025     c-0.014,0.01-0.025,0.015-0.039,0.02c-0.002-0.005-0.002,0-0.005,0C32.005,14.842,32.01,14.842,32.015,14.837z" data-part-id="logo__item--logo_0__102"></path>
			<path fill="#0E73B9" d="M32.149,14.777c0.019-0.01,0.044-0.02,0.064-0.029c-0.01,0-0.02,0.005-0.03,0.014     C32.17,14.767,32.158,14.773,32.149,14.777z" data-part-id="logo__item--logo_0__103"></path>
			<path fill="#0E73B9" d="M32.377,14.668c0.009-0.005,0.017-0.01,0.027-0.01l0,0c-0.064,0.025-0.128,0.055-0.191,0.09     C32.267,14.718,32.319,14.693,32.377,14.668z" data-part-id="logo__item--logo_0__104"></path>
			<path fill="#0E73B9" d="M32.553,14.584c0,0,0.007,0,0.012-0.005c-0.054,0.025-0.108,0.05-0.161,0.079l0.002-0.004l0.007-0.005     c0.029-0.015,0.063-0.03,0.097-0.045C32.523,14.599,32.538,14.594,32.553,14.584z" data-part-id="logo__item--logo_0__105"></path>
			<path fill="#0E73B9" d="M32.564,14.579c0.016-0.005,0.025-0.01,0.038-0.015c-0.008,0.005-0.015,0.005-0.02,0.01     C32.578,14.574,32.569,14.579,32.564,14.579z" data-part-id="logo__item--logo_0__106"></path>
			<path fill="#0E73B9" d="M32.808,14.471c-0.018,0.009-0.042,0.019-0.059,0.029c-0.018,0.005-0.035,0.01-0.047,0.02     C32.736,14.505,32.771,14.485,32.808,14.471z" data-part-id="logo__item--logo_0__107"></path>
			<path fill="#0E73B9" d="M34.904,90.079c1.428,0.535,2.204,0.798,3.487,1.151c-1.157-0.363-2.399-0.774-3.51-1.176v0.005     L34.904,90.079z" data-part-id="logo__item--logo_0__108"></path>
			<path fill="#0E73B9" d="M20.583,80.687c0,0,0.03,0.014,0.078,0.035c-0.214-0.215-0.427-0.428-0.635-0.636     c0.126,0.145,0.255,0.283,0.387,0.421L20.583,80.687z" data-part-id="logo__item--logo_0__109"></path>
			<path fill="#0E73B9" d="M34.21,13.86h-0.002v0.005c0.007,0,0.01-0.005,0.018-0.01L34.21,13.86z M34.203,13.865     c0,0,0.002,0,0.005,0h-0.002H34.203z M34.193,13.87c0,0,0,0-0.005,0c0.005,0,0.01,0,0.015-0.005h-0.002L34.193,13.87z      M34.166,13.88c0,0-0.005,0-0.01,0.005c0.01-0.005,0.022-0.005,0.032-0.01l0,0V13.87l0,0     C34.178,13.875,34.171,13.875,34.166,13.88z M35.614,14.347c-0.072-0.085-0.233-0.139-0.3-0.154     c-0.006,0-0.315-0.099-0.377-0.238c-0.032,0.01-0.064,0.025-0.094,0.035c-0.03,0.01-0.063,0.024-0.097,0.04     c-0.193-0.179-0.345-0.248-0.456-0.203c-0.003,0.004-0.008,0.004-0.008,0.004c-0.005,0-0.005,0.005-0.01,0.005h-0.002l0,0h-0.013     v0.005c0,0-0.004,0.006-0.009,0.006l0,0l0,0h-0.005l0,0c-0.006,0-0.006,0-0.006,0c-0.004,0-0.009,0.004-0.017,0.009     c0,0-0.005,0-0.01,0.005h-0.002c-0.002,0-0.002,0-0.002,0c-0.007,0.005-0.012,0.01-0.018,0.01     c-0.01,0.005-0.017,0.005-0.022,0.01c-0.01,0-0.014,0.005-0.019,0.005c-0.008,0.005-0.013,0.005-0.02,0.009     c-0.002,0-0.002,0-0.007,0L34.116,13.9c0,0,0,0-0.005,0h-0.002c0,0-0.002,0-0.007,0.005c0,0,0,0-0.002,0     c0,0-0.002,0.005-0.005,0.005h-0.002c-0.003,0-0.003,0-0.003,0c-0.005,0.004-0.01,0.004-0.015,0.004l-0.004,0.005     c-0.006,0-0.013,0-0.016,0.006h-0.002h-0.004v0.004c-0.002,0-0.008,0-0.011,0.005c0.002-0.005,0.008-0.005,0.011-0.009     c-0.002,0.004-0.011,0.004-0.013,0.009c-0.004,0-0.007,0-0.014,0.005c-0.003,0-0.01,0.005-0.013,0.005     c0.002,0,0.007-0.005,0.013-0.005c-0.005,0-0.01,0.005-0.013,0.01H34l0,0c-0.005,0-0.01,0-0.01,0     c-0.007,0.005-0.012,0.005-0.012,0.005c-0.005,0.005-0.005,0.005-0.005,0.005c-0.004,0.005-0.01,0.005-0.018,0.01     c-0.007,0-0.015,0.005-0.024,0.01h-0.005h-0.005h-0.002c-0.003,0.005-0.003,0.005-0.003,0.005c-0.004,0-0.007,0-0.009,0     c-0.007,0.01-0.018,0.01-0.025,0.015h-0.005l0,0c-0.005,0.005-0.005,0.005-0.005,0.005h-0.005h-0.005l-0.005,0.005     c-0.002,0.004-0.005,0.004-0.005,0.004c-0.004,0-0.004,0-0.004,0l0,0h-0.002l0,0c-0.006,0-0.006,0-0.011,0.005     c-0.002,0-0.002,0-0.002,0c0.002-0.005,0.007-0.005,0.007-0.005l-0.009,0.005c-0.018,0.011-0.03,0.015-0.045,0.02h-0.002     c-0.005,0-0.007,0.005-0.007,0.005c-0.013,0.005-0.02,0.01-0.029,0.01c-0.025,0.01-0.047,0.025-0.072,0.035     c0.03-0.015,0.057-0.03,0.089-0.045c-0.022,0.01-0.044,0.02-0.064,0.03c-0.035,0.015-0.067,0.03-0.099,0.044     c-0.015,0.006-0.03,0.011-0.04,0.015c-0.02,0.01-0.037,0.016-0.054,0.025c0,0-0.002,0-0.005,0     c-0.005,0.005-0.005,0.005-0.005,0.005c-0.005,0-0.005,0-0.01,0s-0.005,0.005-0.01,0.01c-0.008,0-0.015,0-0.022,0.005     c-0.005,0.005-0.013,0.01-0.013,0.01c-0.01,0-0.012,0.005-0.017,0.005c-0.042,0.02-0.087,0.035-0.129,0.055     c-0.028,0.014-0.063,0.024-0.092,0.044h-0.007c-0.087,0.04-0.179,0.08-0.266,0.124c-0.02,0.01-0.042,0.015-0.063,0.03     c-0.007,0-0.012,0.005-0.022,0.005c0.003,0,0.01,0,0.01,0c-0.005,0-0.01,0.004-0.018,0.004c-0.03,0.016-0.059,0.03-0.089,0.045     c-0.146,0.069-0.288,0.134-0.434,0.213c-0.005,0-0.015,0.005-0.02,0.005c-0.017,0.015-0.035,0.02-0.052,0.03     c-0.022,0.01-0.044,0.019-0.064,0.029c-0.275,0.144-0.565,0.293-0.91,0.486c-0.391,0.213-0.857,0.471-1.44,0.798     c0.213-0.118,0.427-0.233,0.653-0.336c-0.36,0.292-0.744,0.545-1.131,0.798c-0.005,0-0.01,0.005-0.012,0.005     c-0.387,0.252-0.771,0.491-1.135,0.764c-0.24,0.188-0.766,0.589-1.033,0.862c-0.055,0.055-0.097,0.104-0.126,0.149     c0.012,0.01,0.019,0.025,0.03,0.035c0.28-0.094,0.795-0.525,1.393-1.017c0.473-0.396,1.07-0.892,1.796-1.333     c0.357-0.223,1.324-0.803,2.305-1.329c0.013-0.009,0.022-0.014,0.035-0.024c0.292-0.154,0.584-0.302,0.865-0.436     c0.015-0.01,0.033-0.02,0.047-0.025c0.018-0.01,0.035-0.015,0.05-0.024c0.047-0.02,0.097-0.045,0.144-0.065     c0.022-0.01,0.049-0.025,0.074-0.035c0.084-0.035,0.167-0.069,0.248-0.109c0.022-0.01,0.044-0.02,0.064-0.029     c0.015-0.005,0.025-0.01,0.04-0.016c-0.005,0.006-0.007,0.006-0.01,0.006c-0.05,0.025-0.09,0.054-0.142,0.099     c0,0-0.005,0.005-0.01,0.005c-0.107,0.099-0.255,0.268-0.556,0.609c0.682-0.366,0.786-0.357,0.831-0.352     c0.215,0.02,0.232,0.144,0.272,0.451c0.126,0.561,0.986,0.049,1.103-0.183C35.661,14.46,35.658,14.401,35.614,14.347z      M33.935,13.975c0.013-0.005,0.025-0.01,0.038-0.015l0.017-0.01C33.97,13.959,33.953,13.969,33.935,13.975z M33.915,13.979v0.005     C33.915,13.984,33.915,13.984,33.915,13.979L33.915,13.979z M33.871,14v0.005V14L33.871,14z" data-part-id="logo__item--logo_0__110"></path>
			<path fill="#0E73B9" d="M18.615,78.618c0.424,0.451,0.908,0.958,1.411,1.468c-1.413-1.601-2.528-3.444-4.057-4.946     C16.289,75.709,18.318,78.262,18.615,78.618z" data-part-id="logo__item--logo_0__111"></path>
			<path fill="#0E73B9" d="M28.284,86.827c1.649,0.928,3.894,2.073,5.612,2.871c0.312,0.113,0.642,0.238,0.986,0.356     c-0.027-0.04-0.059-0.094-0.086-0.134c0.248-0.123,0.334-0.168,2.612,0.658c2.257,0.819,2.733,0.789,2.82,0.706     c0.037-0.04,0.086-0.09,0.126-0.125c-0.781-1.557-2.853-0.406-3.72-1.78c0.05-0.123,0.201-0.241,0.314-0.312     c0.033-0.01,0.063-0.024,0.097-0.035l1.113-0.208c-2.804-1.179-4.315-2.106-4.497-2.746c0.345-0.356,0.877-0.14,1.252-0.416     c0.007-0.238,0.012-0.372-0.719-0.938c-3.69-2.85-3.867-2.474-4.295-1.565c-1.16,0.298-3.856-2.712-5.153-4.16     c-1.579,1.15-2.235,1.632-4.417-1.471c-1.712-2.257-1.925-0.978-1.925-0.963c-0.03,0.198,0.049,0.808,1.432,2.117     c1.841,1.74,1.827,2.047,1.814,2.27c-0.258,0.085-0.792-0.138-0.991-0.231c0.852,0.853,1.729,1.7,2.493,2.394     C24.649,84.294,26.701,85.771,28.284,86.827z" data-part-id="logo__item--logo_0__112"></path>
			<polygon fill="#0E73B9" points="13.312,64.774 13.312,64.774 13.312,64.774" data-part-id="logo__item--logo_0__113"></polygon>
			<path fill="#0E73B9" d="M49.627,27.458l0.496-0.168c-0.466-0.525-2.427-3.242-2.694-4.089c-0.271-0.858,0.421-1.071,1.048-1.101     c1.616-0.079,0.857-1.358,0.424-1.844c-0.193-0.223-0.796-0.903-1.586-1.037c-0.253-0.039-0.253-0.039-1.472,0.53     c-0.838,0.392-1.024,0.477-2.181-0.837c-0.331-0.372-0.737-0.858-1.257-1.482c-0.012,0.006-0.018,0.01-0.024,0.015     c-0.067,0.04-0.142,0.074-0.208,0.114c-1.58,0.853-3.126,1.686-3.594,0.04c-0.08-0.283-0.263-0.555-0.66-0.57     c-0.194-0.01-0.439,0.045-0.751,0.193c-1.279,0.555-1.606,0.992-1.579,1.314c0.025,0.297,0.344,0.496,0.508,0.595     c0.766,0.47,0.263,1.096-1.497,1.858l-0.074,0.03l-1.646,0.561c0.196,0.645,0.451,1.502,0.669,2.137     c0.793,2.721-1.41,2.523-1.433,2.523c-1.946-0.203-1.574,2.984-1.403,3.375c0.295,0.689,0.957,0.421,1.443-0.02     c2.156-1.983,2.602,0.342,3.113,3.033c0.074,0.387,0.144,0.778,0.208,1.161c1.066-0.6,2.157-1.141,2.592-1.334     c0.146-0.069,0.345-0.154,0.491-0.218c0.89-0.382,1.492-0.377,1.903-0.179c0.01,0.005,0.02,0.01,0.027,0.015     c0.739,0.381,0.831,1.388,0.838,1.819c0,0.065,0.002,0.139,0.015,0.219c0.032,0.361,0.151,0.827,0.547,1.05     c0.344,0.203,0.9,0.213,1.782-0.193c4.072-1.864,3.106-2.825,2.461-3.47c-0.238-0.238-0.461-0.461-0.632-0.669     C44.65,29.797,44.945,29.034,49.627,27.458z" data-part-id="logo__item--logo_0__114"></path>
			<path fill="#0E73B9" d="M33.99,13.95c0.005,0,0.005,0,0.01,0l0,0C33.995,13.95,33.995,13.95,33.99,13.95z" data-part-id="logo__item--logo_0__115"></path>
			<path fill="#0E73B9" d="M34.007,13.944c0.002,0,0.009-0.005,0.013-0.005l0,0C34.015,13.939,34.01,13.944,34.007,13.944z" data-part-id="logo__item--logo_0__116"></path>
			<polygon fill="#0E73B9" points="34.037,13.935 34.047,13.925 34.047,13.93" data-part-id="logo__item--logo_0__117"></polygon>
			<polygon fill="#0E73B9" points="34.052,13.925 34.052,13.925 34.047,13.925" data-part-id="logo__item--logo_0__118"></polygon>
			<polygon fill="#0E73B9" points="34.28,13.831 34.272,13.835 34.272,13.831" data-part-id="logo__item--logo_0__119"></polygon>
		</g>
	</g>
</g>

    </g>
</g></svg>